<?xml version="1.0" encoding="utf-8"?>
<!-- Generator: Adobe Illustrator 21.0.0, SVG Export Plug-In . SVG Version: 6.00 Build 0)  -->
<svg version="1.1" id="Layer_1" xmlns="http://www.w3.org/2000/svg" xmlns:xlink="http://www.w3.org/1999/xlink" x="0px" y="0px"
	 viewBox="0 0 32 32" style="enable-background:new 0 0 32 32;" xml:space="preserve">
<path d="M11,15.9l11.8,11.7c0.1,0.1,0.2,0.3,0.3,0.4c0,0.1,0.1,0.2,0.1,0.3c0,0.1,0,0.3-0.1,0.4c0,0-0.1,0.1-0.2,0.3
	c-0.1,0.1-0.2,0.2-0.3,0.2s-0.2,0.1-0.4,0.1c-0.1,0-0.2,0-0.3-0.1c-0.1,0-0.2-0.1-0.3-0.2L9.1,16.5c-0.1-0.1-0.2-0.2-0.2-0.3
	S8.8,16,8.8,15.9c0-0.1,0-0.2,0.1-0.3c0-0.1,0.1-0.2,0.2-0.3L21.7,2.8h0.1c0,0,0-0.1,0.1-0.1s0,0,0.1,0h0.1h0.1c0.1,0,0.2,0,0.2,0
	h0.1h0.1c0,0,0,0,0.1,0.1h0.1l0.1,0.1c0,0,0.1,0.1,0.2,0.3c0,0.1,0.1,0.2,0.1,0.4c0,0.1,0,0.2-0.1,0.3S23,3.9,22.8,4.1L11,15.9z"/>
</svg>
