<svg xmlns="http://www.w3.org/2000/svg" viewBox="0 0 32 32"><path d="M3.571 5.339V3.571h1.768v1.768zm5.304 0V3.571h18.696q.179 0 .339.054.089.018.268.196t.196.268q.054.161.054.339 0 .196-.054.357-.054.143-.196.286-.161.196-.268.214-.161.054-.339.054zm-5.304 23.09v-1.768h1.768v1.768zm5.304 0v-1.768h18.696q.179 0 .339.054.107.018.286.196.161.179.179.304.071.214.071.357 0 .125-.071.339-.054.143-.179.268-.196.161-.286.196-.214.054-.339.054zM3.571 16.911v-1.786h1.768v1.786zm5.304 0v-1.786h18.696q.125 0 .339.054.089.036.286.196.125.143.179.286.071.214.071.339t-.071.339q-.054.143-.179.286-.179.179-.286.196-.161.054-.339.054H8.875z" fill="#000000"/></svg>