<svg xmlns="http://www.w3.org/2000/svg" viewBox="0 0 32 32"><path d="M16 30.661l-3.375-3.375q-.071-.071-.714-.75l-.714-.714q-.286-.321-.661-.696-.536-.571-.589-.625-.768-.786-1.107-1.161-.482-.518-.893-1-.268-.268-.357-.375-.25-.304-.393-.5-.196-.196-.321-.339-.161-.196-.286-.339-.643-.804-1.125-1.661-.446-.893-.804-1.839-.286-.839-.464-1.982-.196-1.143-.196-1.964 0-1.286.214-2.411t.732-2.268q.518-1.161 1.125-2.071.607-.946 1.429-1.75.857-.804 1.821-1.429.946-.643 2.018-1.125 1.107-.5 2.25-.732 1.089-.214 2.411-.214 1.25 0 2.411.214 1.143.232 2.25.732 1.089.5 2.036 1.125.946.607 1.768 1.429.875.821 1.482 1.75.625.964 1.125 2.071.464 1.071.714 2.268.214 1.125.214 2.411 0 .964-.161 1.964-.196 1.125-.5 1.982-.357 1.018-.804 1.804-.589.982-1.125 1.696-.125.143-.286.339-.25.286-.304.339l-.75.875q-.054.071-.911 1-.071.071-.536.571t-.554.589q-.25.286-.625.661-.339.339-.625.661-.393.411-1.446 1.464zM6.661 13.339q0 .893.125 1.571.161.768.375 1.5.179.482.661 1.393.393.768.875 1.321.232.339.625.786.786.875.875.964.036.036.464.536.214.232.5.518.036.036.5.536.321.321.536.571.054.054.518.554l.5.571 1.071 1.054L16 26.928l1.714-1.714q.464-.482 1.036-1.054l1.071-1.125q.071-.071.241-.268t.277-.304q.464-.5.5-.536.179-.214.366-.411t.366-.384.25-.259q.268-.268.5-.571.179-.232.339-.393.357-.411.661-.786.482-.554.875-1.321.429-.786.625-1.393.214-.661.393-1.5.125-.696.125-1.571 0-1.036-.179-1.875-.161-.768-.571-1.75-.375-.929-.875-1.625-.536-.786-1.125-1.375-.571-.571-1.375-1.125-.696-.482-1.589-.839-.929-.375-1.75-.571-.893-.179-1.875-.179t-1.875.179q-.821.196-1.75.571-1 .411-1.589.839-.839.554-1.411 1.125-.536.536-1.125 1.375-.446.643-.839 1.625-.411.982-.571 1.75-.179.839-.179 1.875zm12 0q0 .482-.214 1-.196.482-.571.875-.411.411-.875.589-.5.196-1 .196-.536 0-1.036-.196-.446-.161-.839-.589-.411-.411-.589-.875-.196-.536-.196-1 0-.5.196-1.036.179-.5.589-.875.393-.393.839-.589.464-.179 1.036-.179.536 0 1 .179t.875.589q.375.375.571.875.214.5.214 1.036z" fill="#000000"/></svg>