<?xml version="1.0" encoding="utf-8"?>
<!-- Generator: Adobe Illustrator 21.0.0, SVG Export Plug-In . SVG Version: 6.00 Build 0)  -->
<svg version="1.1" id="Layer_1" xmlns="http://www.w3.org/2000/svg" xmlns:xlink="http://www.w3.org/1999/xlink" x="0px" y="0px"
	 viewBox="0 0 32 32" style="enable-background:new 0 0 32 32;" xml:space="preserve">
<path d="M16,21L27.8,9.2C27.9,9.1,28,9,28.1,8.9c0.1,0,0.2-0.1,0.3-0.1c0.1,0,0.3,0,0.4,0.1c0,0,0.1,0.1,0.3,0.2
	c0.1,0.1,0.2,0.2,0.2,0.3c0,0.1,0.1,0.2,0.1,0.4c0,0.1,0,0.2-0.1,0.3c0,0.1-0.1,0.2-0.2,0.3L16.6,22.9c-0.1,0.1-0.2,0.2-0.3,0.2
	c-0.1,0-0.2,0.1-0.3,0.1c-0.1,0-0.2,0-0.3-0.1c-0.1,0-0.2-0.1-0.3-0.2L2.8,10.3c0,0,0-0.1,0-0.1c0,0-0.1,0-0.1-0.1s0,0,0-0.1V9.9
	c0,0,0-0.1,0-0.1c0-0.1,0-0.2,0-0.2V9.5c0,0,0-0.1,0-0.1c0,0,0,0,0.1-0.1c0,0,0-0.1,0-0.1l0.1-0.1c0,0,0.1-0.1,0.3-0.2
	c0.1,0,0.2-0.1,0.4-0.1c0.1,0,0.2,0,0.3,0.1C4,9,4.1,9,4.2,9.2L16,21z"/>
</svg>
