<?xml version="1.0" encoding="utf-8"?>
<!-- Generator: Adobe Illustrator 21.0.0, SVG Export Plug-In . SVG Version: 6.00 Build 0)  -->
<svg version="1.1" id="Layer_1" xmlns="http://www.w3.org/2000/svg" xmlns:xlink="http://www.w3.org/1999/xlink" x="0px" y="0px"
	 viewBox="0 0 32 32" style="enable-background:new 0 0 32 32;" xml:space="preserve">
<path d="M6.7,9.4v-4H4c-0.2,0-0.4,0-0.5-0.1C3.3,5.2,3.2,5.1,3.1,5C2.9,4.8,2.8,4.7,2.7,4.5C2.7,4.4,2.7,4.2,2.7,4s0-0.4,0.1-0.5
	C2.8,3.3,2.9,3.2,3,3.1c0.1-0.1,0.3-0.2,0.4-0.3C3.6,2.7,3.8,2.7,4,2.7h5.3v6.7h20v13.3H6.7L6.7,9.4L6.7,9.4z M9.3,20h17.3v-8H9.3
	V20z M13.3,26.7c0,0.4-0.1,0.7-0.2,1c-0.1,0.3-0.3,0.6-0.6,0.9c-0.3,0.3-0.5,0.5-0.9,0.6c-0.3,0.1-0.6,0.2-1,0.2
	c-0.4,0-0.7-0.1-1-0.2c-0.3-0.1-0.6-0.3-0.9-0.6c-0.3-0.3-0.5-0.6-0.6-0.9C8.1,27.4,8,27,8,26.7c0-0.3,0.1-0.7,0.2-1
	c0.1-0.3,0.3-0.6,0.6-0.9c0.3-0.3,0.6-0.5,0.9-0.6c0.3-0.1,0.7-0.2,1-0.2c0.3,0,0.7,0.1,1,0.2c0.3,0.1,0.6,0.3,0.9,0.6
	c0.3,0.3,0.5,0.6,0.6,0.9C13.3,26,13.3,26.3,13.3,26.7z M25.3,29.3c-0.4,0-0.7-0.1-1-0.2c-0.3-0.1-0.6-0.3-0.9-0.6
	c-0.3-0.3-0.5-0.6-0.6-0.9s-0.2-0.7-0.2-1c0-0.4,0.1-0.7,0.2-1c0.1-0.3,0.3-0.6,0.6-0.9c0.3-0.3,0.6-0.5,0.9-0.6
	c0.3-0.1,0.7-0.2,1-0.2c0.3,0,0.7,0.1,1,0.2c0.3,0.1,0.6,0.3,0.9,0.6c0.3,0.3,0.5,0.6,0.6,0.9c0.1,0.3,0.2,0.7,0.2,1
	c0,0.4-0.1,0.7-0.2,1c-0.1,0.3-0.3,0.6-0.6,0.9c-0.3,0.3-0.6,0.5-0.9,0.6C26,29.3,25.7,29.3,25.3,29.3z"/>
</svg>
