<?xml version="1.0" encoding="utf-8"?>
<!-- Generator: Adobe Illustrator 21.0.0, SVG Export Plug-In . SVG Version: 6.00 Build 0)  -->
<svg version="1.1" id="Layer_1" xmlns="http://www.w3.org/2000/svg" xmlns:xlink="http://www.w3.org/1999/xlink" x="0px" y="0px"
	 viewBox="0 0 32 32" style="enable-background:new 0 0 32 32;" xml:space="preserve">
<path d="M17.3,16L27.3,5.9c0,0,0-0.1,0.1-0.1c0,0,0.1-0.1,0.1-0.1c0,0,0.1-0.1,0.1-0.2V5.3c0-0.1,0-0.2-0.1-0.3
	c0-0.1-0.1-0.2-0.2-0.3c-0.1-0.1-0.2-0.2-0.3-0.2c-0.1,0-0.3-0.1-0.3-0.1h-0.2l-0.1,0.1l0,0h0c-0.1,0-0.1,0-0.1,0.1c0,0,0,0-0.1,0.1
	c0,0,0,0-0.1,0l0,0l-10,10L6.2,4.9C6.1,4.8,6,4.8,6,4.8c0-0.1-0.1-0.1-0.2-0.1c0,0-0.1,0-0.2-0.1c0,0-0.1,0-0.2,0
	c-0.1,0-0.2,0-0.4,0.1C5.1,4.7,5,4.8,4.9,4.9C4.8,5.1,4.7,5.1,4.7,5.2c0,0.1-0.1,0.3-0.1,0.4c0,0.1,0,0.1,0,0.2c0,0.1,0,0.1,0.1,0.2
	c0,0.1,0,0.1,0.1,0.2c0,0,0,0.1,0.1,0.1l9.9,9.8l-10,10l0,0c0,0,0,0,0,0.1c0,0,0,0-0.1,0.1l-0.1,0.1c0,0,0,0,0,0.1l-0.1,0.1v0.2
	c0,0.1,0,0.2,0.1,0.3c0,0.1,0.1,0.2,0.2,0.3c0.1,0.1,0.2,0.1,0.3,0.2c0.2,0,0.3,0.1,0.3,0.1h0.2l0.1-0.1c0,0,0.1,0,0.1-0.1
	c0,0,0.1,0,0.1,0c0,0,0,0,0.1-0.1L16,17.3l10,10l0,0c0,0,0,0,0.1,0c0,0,0,0,0.1,0.1c0,0,0.1,0.1,0.1,0.1l0.1,0.1h0.4
	c0,0,0.1,0,0.1,0c0,0,0.1,0,0.1,0c0,0,0.1-0.1,0.2-0.1c0,0,0.1-0.1,0.1-0.1c0,0,0.1-0.1,0.1-0.1c0-0.1,0.1-0.1,0.1-0.2
	c0,0,0,0,0-0.1c0,0,0-0.1,0-0.1v-0.4l-0.1-0.1c0,0-0.1-0.1-0.1-0.1c0,0,0,0-0.1-0.1c0,0,0,0,0-0.1l0,0L17.3,16z"/>
</svg>
