<?xml version="1.0" encoding="utf-8"?>
<!-- Generator: Adobe Illustrator 21.0.0, SVG Export Plug-In . SVG Version: 6.00 Build 0)  -->
<svg version="1.1" id="Layer_1" xmlns="http://www.w3.org/2000/svg" xmlns:xlink="http://www.w3.org/1999/xlink" x="0px" y="0px"
	 viewBox="0 0 32 32" style="enable-background:new 0 0 32 32;" xml:space="preserve">
<path d="M10.5,15.1c-0.4-0.3-0.7-0.7-1-1.2c-0.3-0.3-0.5-0.8-0.8-1.4c-0.2-0.4-0.4-1-0.5-1.6C8.1,10.3,8,9.8,8,9.3
	c0-0.6,0.1-1.1,0.2-1.6c0.1-0.6,0.3-1.1,0.5-1.5c0.2-0.4,0.4-0.9,0.8-1.4c0.3-0.4,0.6-0.8,1-1.2c0.3-0.2,0.6-0.6,1.2-1
	c0.3-0.2,0.8-0.5,1.3-0.7c0.5-0.2,1-0.3,1.5-0.5c0.5-0.1,1-0.2,1.6-0.2c0.6,0,1.1,0.1,1.6,0.2c0.5,0.1,1,0.3,1.5,0.5
	c0.5,0.3,1,0.5,1.3,0.7c0.4,0.3,0.8,0.6,1.2,1c0.4,0.4,0.7,0.8,1,1.2c0.2,0.3,0.5,0.8,0.7,1.4c0.2,0.5,0.3,1,0.5,1.5
	C23.9,8.3,24,8.8,24,9.3c0,0.5-0.1,1.1-0.2,1.6c-0.1,0.6-0.3,1.1-0.5,1.6c-0.3,0.6-0.5,1-0.8,1.4c-0.4,0.5-0.7,0.9-1,1.2
	c0.5,0.1,0.9,0.3,1.4,0.6c0.4,0.2,0.8,0.4,1.2,0.8c0.4,0.3,0.8,0.6,1.1,0.9c0.4,0.4,0.7,0.8,1,1.1c0.2,0.3,0.5,0.8,0.8,1.3
	c0.3,0.4,0.4,0.9,0.6,1.3c0.2,0.5,0.3,1,0.4,1.4C28,22.9,28,23.4,28,24v6.7H4V24c0-0.6,0-1.1,0.1-1.5c0.1-0.6,0.2-1.1,0.3-1.4
	c0.1-0.3,0.3-0.8,0.6-1.3c0.3-0.5,0.6-0.9,0.8-1.2c0.2-0.3,0.5-0.7,0.9-1.1c0.4-0.4,0.7-0.7,1.1-0.9c0.4-0.3,0.8-0.5,1.3-0.8
	C9.6,15.4,10,15.3,10.5,15.1L10.5,15.1z M6.7,28h18.7v-4c0-0.5,0-0.9-0.1-1.3c-0.1-0.5-0.3-0.9-0.4-1.3c-0.1-0.3-0.3-0.7-0.6-1.1
	c-0.2-0.4-0.5-0.7-0.8-1c-0.3-0.3-0.6-0.6-1-0.8c-0.4-0.3-0.8-0.5-1.2-0.6c-0.4-0.2-0.8-0.3-1.3-0.4c-0.4-0.1-0.8-0.1-1.3-0.1h-5.3
	c-0.5,0-0.9,0-1.3,0.1c-0.5,0.1-0.9,0.2-1.3,0.4c-0.3,0.1-0.7,0.3-1.1,0.6c-0.3,0.2-0.7,0.5-1,0.8c-0.3,0.3-0.6,0.6-0.8,1
	c-0.3,0.5-0.5,0.9-0.6,1.2c-0.1,0.3-0.2,0.7-0.4,1.3c-0.1,0.5-0.2,0.9-0.2,1.3L6.7,28L6.7,28z M16,4c-0.7,0-1.4,0.1-2.1,0.4
	c-0.6,0.3-1.2,0.6-1.7,1.2c-0.5,0.5-0.9,1.1-1.1,1.7c-0.3,0.6-0.4,1.3-0.4,2.1c0,0.7,0.1,1.4,0.4,2c0.3,0.7,0.7,1.2,1.1,1.7
	c0.5,0.5,1.1,0.9,1.7,1.2c0.6,0.3,1.3,0.4,2.1,0.4c0.8,0,1.5-0.1,2.1-0.4c0.6-0.3,1.2-0.7,1.7-1.2c0.5-0.5,0.9-1.1,1.1-1.7
	c0.3-0.6,0.4-1.3,0.4-2c0-0.8-0.1-1.4-0.4-2.1c-0.3-0.7-0.7-1.2-1.1-1.7c-0.5-0.5-1.1-0.9-1.7-1.2C17.5,4.1,16.8,4,16,4z"/>
</svg>
