<svg id="svg" version="1.1" xmlns="http://www.w3.org/2000/svg" xmlns:xlink="http://www.w3.org/1999/xlink" width="400" height="75.3875968992248" viewBox="0, 0, 400,75.3875968992248"><g id="svgg"><path id="path0" d="M32.583 0.179 C 30.826 0.382,27.500 1.019,27.500 1.153 C 27.500 1.217,27.106 1.368,26.625 1.487 C 25.377 1.796,24.097 2.207,24.000 2.330 C 23.954 2.388,23.317 2.648,22.583 2.909 C 21.850 3.169,21.137 3.470,21.000 3.579 C 20.862 3.687,20.300 3.994,19.750 4.262 C 19.200 4.530,18.649 4.845,18.525 4.963 C 18.401 5.080,18.061 5.276,17.768 5.398 C 17.476 5.520,17.127 5.727,16.993 5.858 C 16.860 5.989,16.450 6.276,16.083 6.496 C 15.717 6.717,15.196 7.108,14.927 7.365 C 14.657 7.623,14.344 7.833,14.230 7.833 C 14.116 7.833,13.862 8.058,13.667 8.333 C 13.471 8.608,13.234 8.833,13.141 8.833 C 12.915 8.833,8.833 12.908,8.833 13.134 C 8.833 13.231,8.608 13.471,8.333 13.667 C 8.058 13.862,7.833 14.116,7.833 14.230 C 7.833 14.344,7.623 14.657,7.365 14.927 C 7.108 15.196,6.717 15.717,6.496 16.083 C 6.276 16.450,5.989 16.860,5.858 16.993 C 5.727 17.127,5.520 17.476,5.398 17.768 C 5.276 18.061,5.069 18.407,4.938 18.538 C 4.807 18.669,4.458 19.295,4.162 19.930 C 3.867 20.564,3.572 21.121,3.507 21.167 C 3.443 21.212,3.175 21.850,2.913 22.583 C 2.650 23.317,2.379 23.956,2.309 24.005 C 2.240 24.053,1.981 24.803,1.734 25.671 C 1.486 26.540,1.231 27.287,1.166 27.333 C 1.012 27.442,0.389 30.841,0.173 32.750 C -0.047 34.685,-0.047 40.649,0.173 42.583 C 0.389 44.493,1.012 47.891,1.166 48.000 C 1.231 48.046,1.486 48.794,1.734 49.662 C 1.981 50.530,2.240 51.280,2.309 51.329 C 2.379 51.377,2.650 52.017,2.913 52.750 C 3.175 53.483,3.443 54.121,3.507 54.167 C 3.572 54.212,3.867 54.769,4.162 55.403 C 4.458 56.038,4.807 56.664,4.938 56.795 C 5.069 56.926,5.276 57.272,5.398 57.565 C 5.520 57.857,5.727 58.206,5.858 58.340 C 5.989 58.474,6.276 58.883,6.496 59.250 C 6.717 59.617,7.108 60.137,7.365 60.407 C 7.623 60.676,7.833 60.990,7.833 61.104 C 7.833 61.217,8.058 61.471,8.333 61.667 C 8.608 61.862,8.833 62.102,8.833 62.200 C 8.833 62.426,12.915 66.500,13.141 66.500 C 13.234 66.500,13.471 66.725,13.667 67.000 C 13.862 67.275,14.116 67.500,14.230 67.500 C 14.344 67.500,14.657 67.711,14.927 67.968 C 15.196 68.226,15.717 68.617,16.083 68.837 C 16.450 69.057,16.860 69.344,16.993 69.475 C 17.127 69.606,17.476 69.813,17.768 69.935 C 18.061 70.057,18.401 70.253,18.525 70.371 C 18.649 70.488,19.200 70.803,19.750 71.071 C 20.300 71.339,20.862 71.647,21.000 71.755 C 21.137 71.863,21.850 72.164,22.583 72.425 C 23.317 72.685,23.954 72.946,24.000 73.004 C 24.090 73.117,25.236 73.488,26.583 73.841 C 27.042 73.961,27.455 74.114,27.501 74.182 C 27.612 74.343,30.840 74.946,32.750 75.161 C 34.836 75.397,365.164 75.397,367.250 75.161 C 369.160 74.946,372.388 74.343,372.499 74.182 C 372.545 74.114,372.958 73.961,373.417 73.841 C 374.764 73.488,375.910 73.117,376.000 73.004 C 376.046 72.946,376.683 72.685,377.417 72.425 C 378.150 72.164,378.863 71.863,379.000 71.755 C 379.137 71.647,379.700 71.339,380.250 71.071 C 380.800 70.803,381.351 70.488,381.475 70.371 C 381.599 70.253,381.939 70.057,382.232 69.935 C 382.524 69.813,382.873 69.606,383.007 69.475 C 383.140 69.344,383.550 69.057,383.917 68.837 C 384.283 68.617,384.804 68.226,385.073 67.968 C 385.343 67.711,385.656 67.500,385.770 67.500 C 385.884 67.500,386.138 67.275,386.333 67.000 C 386.529 66.725,386.766 66.500,386.859 66.500 C 387.085 66.500,391.167 62.426,391.167 62.200 C 391.167 62.102,391.392 61.862,391.667 61.667 C 391.942 61.471,392.167 61.217,392.167 61.104 C 392.167 60.990,392.377 60.676,392.635 60.407 C 392.892 60.137,393.283 59.617,393.504 59.250 C 393.724 58.883,394.011 58.474,394.142 58.340 C 394.273 58.206,394.480 57.857,394.602 57.565 C 394.724 57.272,394.931 56.926,395.062 56.795 C 395.193 56.664,395.542 56.038,395.838 55.403 C 396.133 54.769,396.428 54.212,396.493 54.167 C 396.557 54.121,396.825 53.483,397.087 52.750 C 397.350 52.017,397.621 51.377,397.691 51.329 C 397.760 51.280,398.019 50.530,398.266 49.662 C 398.514 48.794,398.769 48.046,398.834 48.000 C 398.988 47.891,399.611 44.493,399.827 42.583 C 400.047 40.649,400.047 34.685,399.827 32.750 C 399.611 30.841,398.988 27.442,398.834 27.333 C 398.769 27.287,398.514 26.540,398.266 25.671 C 398.019 24.803,397.760 24.053,397.691 24.005 C 397.621 23.956,397.350 23.317,397.087 22.583 C 396.825 21.850,396.557 21.212,396.493 21.167 C 396.428 21.121,396.133 20.564,395.838 19.930 C 395.542 19.295,395.193 18.669,395.062 18.538 C 394.931 18.407,394.724 18.061,394.602 17.768 C 394.480 17.476,394.273 17.127,394.142 16.993 C 394.011 16.860,393.724 16.450,393.504 16.083 C 393.283 15.717,392.892 15.196,392.635 14.927 C 392.377 14.657,392.167 14.344,392.167 14.230 C 392.167 14.116,391.942 13.862,391.667 13.667 C 391.392 13.471,391.167 13.231,391.167 13.134 C 391.167 12.908,387.085 8.833,386.859 8.833 C 386.766 8.833,386.529 8.608,386.333 8.333 C 386.138 8.058,385.884 7.833,385.770 7.833 C 385.656 7.833,385.343 7.623,385.073 7.365 C 384.804 7.108,384.283 6.717,383.917 6.496 C 383.550 6.276,383.140 5.989,383.007 5.858 C 382.873 5.727,382.524 5.520,382.232 5.398 C 381.939 5.276,381.599 5.080,381.475 4.963 C 381.351 4.845,380.800 4.530,380.250 4.262 C 379.700 3.994,379.137 3.687,379.000 3.579 C 378.863 3.470,378.150 3.169,377.417 2.909 C 376.683 2.648,376.046 2.388,376.000 2.330 C 375.910 2.216,374.764 1.845,373.417 1.493 C 372.958 1.373,372.545 1.219,372.499 1.151 C 372.388 0.990,369.160 0.388,367.250 0.172 C 365.426 -0.034,34.365 -0.027,32.583 0.179 M365.250 2.170 C 377.655 3.316,388.128 10.303,393.850 21.250 C 405.635 43.798,390.756 70.807,365.250 73.164 C 362.702 73.399,37.298 73.399,34.750 73.164 C 12.343 71.093,-2.620 49.641,3.348 28.142 C 7.282 13.966,19.699 3.594,34.417 2.188 C 36.632 1.977,362.963 1.958,365.250 2.170 M200.125 27.760 C 200.056 27.831,200.000 33.239,200.000 39.778 L 200.000 51.667 205.738 51.667 C 212.124 51.667,213.519 51.540,215.298 50.801 C 220.359 48.699,220.723 42.536,215.935 40.017 C 215.395 39.733,214.856 39.500,214.736 39.500 C 214.237 39.500,214.381 39.171,215.051 38.778 C 219.798 35.996,218.681 29.772,213.145 28.153 C 211.865 27.779,200.442 27.434,200.125 27.760 M213.098 30.698 C 216.523 32.505,215.959 36.942,212.161 38.070 C 211.451 38.280,210.408 38.333,206.970 38.333 L 202.667 38.333 202.667 34.239 L 202.667 30.144 207.458 30.197 L 212.250 30.250 213.098 30.698 M229.664 33.852 C 227.975 33.989,224.667 34.963,224.667 35.323 C 224.667 35.523,225.205 37.076,225.319 37.205 C 225.378 37.272,226.024 37.086,226.755 36.791 C 229.426 35.716,233.175 36.037,234.730 37.473 C 235.506 38.190,236.512 41.500,235.954 41.500 C 235.902 41.500,235.197 41.340,234.388 41.145 C 229.482 39.960,224.790 41.289,223.491 44.231 C 220.658 50.644,229.710 54.811,235.368 49.698 L 236.000 49.128 236.000 50.397 L 236.000 51.667 237.261 51.667 L 238.521 51.667 238.467 45.208 C 238.416 39.135,238.392 38.700,238.068 37.908 C 236.809 34.830,234.044 33.496,229.664 33.852 M268.500 33.860 C 267.108 33.988,265.131 34.508,264.167 35.000 L 263.534 35.323 263.880 36.286 C 264.071 36.816,264.237 37.268,264.251 37.291 C 264.264 37.313,264.907 37.096,265.679 36.808 C 269.404 35.419,273.224 36.169,274.394 38.517 C 274.947 39.627,275.046 41.588,274.542 41.433 C 269.300 39.817,264.017 40.976,262.491 44.076 C 259.455 50.243,268.502 54.919,273.909 49.978 L 274.818 49.147 274.867 50.365 L 274.917 51.583 276.208 51.632 L 277.500 51.681 277.497 46.132 C 277.495 43.080,277.418 40.065,277.327 39.430 C 276.743 35.388,273.579 33.392,268.500 33.860 M291.363 33.845 C 289.415 34.228,287.727 35.429,286.492 37.310 L 285.667 38.568 285.667 36.284 L 285.667 34.000 284.417 34.000 L 283.167 34.000 283.167 42.833 L 283.167 51.667 284.417 51.667 L 285.667 51.667 285.670 47.542 C 285.675 39.908,287.320 37.032,291.958 36.545 L 292.833 36.453 292.833 35.060 C 292.833 33.491,292.897 33.543,291.363 33.845 M243.667 35.082 L 243.667 36.167 249.250 36.167 C 252.321 36.167,254.833 36.208,254.833 36.258 C 254.833 36.344,251.436 40.357,245.632 47.126 C 243.169 49.999,243.167 50.002,243.167 50.834 L 243.167 51.667 250.841 51.667 L 258.516 51.667 258.466 50.625 L 258.417 49.583 252.625 49.540 C 249.440 49.515,246.833 49.437,246.833 49.364 C 246.833 49.292,248.340 47.474,250.180 45.325 C 252.021 43.175,254.650 40.107,256.021 38.506 C 258.512 35.599,258.515 35.595,258.466 34.839 L 258.417 34.083 251.042 34.040 L 243.667 33.997 243.667 35.082 M309.583 34.160 C 305.815 34.751,302.840 37.548,302.095 41.201 C 300.269 50.159,310.390 56.088,317.077 49.977 L 318.019 49.116 317.308 48.391 C 316.443 47.509,316.479 47.510,315.541 48.336 C 311.003 52.330,304.518 49.293,304.506 43.167 C 304.494 37.127,310.820 34.182,315.329 38.127 L 316.195 38.884 317.050 38.029 L 317.906 37.174 317.328 36.573 C 315.606 34.782,312.261 33.740,309.583 34.160 M329.222 34.161 C 321.837 35.296,318.785 44.361,324.000 49.675 C 329.776 55.560,339.680 51.510,339.712 43.250 C 339.733 37.507,334.871 33.294,329.222 34.161 M351.710 34.178 C 350.349 34.415,349.425 34.943,348.342 36.100 C 347.107 37.421,347.167 37.434,347.167 35.833 L 347.167 34.500 345.917 34.500 L 344.667 34.500 344.667 43.250 L 344.667 52.000 345.907 52.000 L 347.147 52.000 347.201 46.292 C 347.252 40.830,347.271 40.543,347.629 39.653 C 349.277 35.555,354.470 35.214,356.282 39.084 L 356.750 40.083 356.803 46.042 L 356.856 52.000 358.085 52.000 L 359.314 52.000 359.365 46.042 C 359.422 39.430,359.411 39.503,360.589 38.066 C 362.418 35.834,366.304 35.861,367.857 38.117 C 368.791 39.475,368.833 39.829,368.833 46.193 L 368.833 52.000 370.167 52.000 L 371.500 52.000 371.497 46.458 C 371.493 40.565,371.397 39.341,370.818 37.793 C 369.215 33.505,363.127 32.726,359.640 36.361 C 359.013 37.015,358.500 37.470,358.500 37.373 C 358.500 37.011,357.112 35.458,356.364 34.984 C 355.129 34.200,353.347 33.892,351.710 34.178 M333.369 36.963 C 336.055 38.287,337.566 41.402,337.032 44.514 C 335.932 50.926,327.734 52.256,324.849 46.491 C 321.881 40.562,327.628 34.135,333.369 36.963 M214.127 41.399 C 216.811 42.638,217.527 45.546,215.650 47.582 C 214.299 49.048,212.895 49.330,206.958 49.332 L 202.667 49.333 202.667 45.073 L 202.667 40.812 207.875 40.864 L 213.083 40.917 214.127 41.399 M233.761 43.011 C 234.305 43.108,235.031 43.261,235.375 43.350 L 236.000 43.513 235.998 44.798 C 235.992 49.693,228.392 52.075,226.048 47.917 C 224.149 44.549,228.148 42.005,233.761 43.011 M273.081 43.096 C 275.142 43.457,275.391 43.921,274.781 46.273 C 273.618 50.754,265.269 51.275,264.576 46.910 C 264.068 43.715,267.590 42.136,273.081 43.096 M294.284 48.605 C 294.219 48.670,294.167 49.460,294.167 50.361 L 294.167 52.000 295.756 52.000 L 297.345 52.000 297.297 50.292 L 297.250 48.583 295.825 48.536 C 295.042 48.509,294.348 48.541,294.284 48.605 " stroke="none" fill="#281f27" fill-rule="evenodd"></path><path id="path1" d="M38.417 18.560 C 36.593 19.413,35.548 21.131,35.086 24.034 L 34.988 24.651 33.952 24.701 L 32.917 24.750 32.873 32.292 L 32.830 39.833 39.998 39.833 L 47.167 39.833 47.167 32.258 L 47.167 24.683 46.125 24.633 L 45.083 24.583 44.978 23.750 C 44.464 19.671,41.334 17.195,38.417 18.560 M41.641 19.154 C 42.870 19.780,43.779 21.135,44.262 23.059 C 44.694 24.778,44.992 24.667,39.982 24.667 L 35.620 24.667 35.719 23.792 C 36.145 20.038,38.996 17.804,41.641 19.154 M54.368 22.201 C 53.100 22.603,52.957 22.794,52.157 25.157 L 51.561 26.917 50.197 26.965 L 48.833 27.013 48.833 27.757 L 48.833 28.500 49.755 28.500 C 50.950 28.500,50.916 28.342,50.604 32.455 C 50.459 34.359,50.259 37.004,50.159 38.333 C 50.059 39.662,49.942 40.994,49.898 41.293 L 49.818 41.836 39.951 41.793 L 30.084 41.750 29.788 40.417 C 29.625 39.683,29.235 37.921,28.921 36.500 C 28.608 35.079,28.086 32.754,27.762 31.333 C 27.439 29.912,27.172 28.694,27.170 28.625 C 27.168 28.556,28.062 28.500,29.157 28.500 C 31.321 28.500,31.404 28.464,31.240 27.586 L 31.130 27.000 28.515 27.000 C 25.768 27.000,25.500 27.067,25.500 27.755 C 25.500 28.146,26.166 31.461,27.072 35.583 C 27.395 37.050,27.888 39.296,28.169 40.574 C 28.450 41.853,28.761 42.997,28.861 43.116 C 29.005 43.290,31.082 43.333,39.354 43.333 L 49.667 43.333 49.667 44.417 L 49.667 45.500 39.822 45.500 C 29.358 45.500,29.333 45.502,29.333 46.306 C 29.333 46.936,29.616 47.167,30.384 47.167 C 30.939 47.167,31.018 47.210,30.915 47.458 C 30.238 49.099,30.680 50.777,31.993 51.553 C 32.546 51.880,48.833 52.090,48.833 51.770 C 48.833 51.690,49.092 51.338,49.407 50.988 C 50.187 50.125,50.364 48.923,49.916 47.542 C 49.811 47.219,49.854 47.167,50.219 47.167 C 50.611 47.167,51.165 46.794,51.168 46.530 C 51.171 46.065,52.018 34.273,52.086 33.750 C 52.133 33.383,52.244 32.137,52.332 30.980 C 52.475 29.107,52.575 28.655,53.246 26.861 C 53.661 25.753,54.000 24.774,54.000 24.685 C 54.000 24.536,55.558 24.000,55.992 24.000 C 56.308 24.000,57.000 23.205,57.000 22.841 C 57.000 21.877,56.089 21.656,54.368 22.201 M93.414 23.018 C 89.847 24.902,91.045 30.180,95.036 30.163 C 97.103 30.154,98.833 28.447,98.833 26.417 C 98.833 23.710,95.757 21.780,93.414 23.018 M35.717 25.852 C 36.103 26.465,35.307 26.988,34.842 26.427 C 34.692 26.247,34.690 26.101,34.833 25.834 C 35.045 25.437,35.461 25.446,35.717 25.852 M45.243 25.959 C 45.395 26.356,44.900 26.790,44.548 26.569 C 44.153 26.319,44.112 26.079,44.414 25.776 C 44.711 25.479,45.091 25.563,45.243 25.959 M135.167 39.250 L 135.167 51.667 137.750 51.667 L 140.333 51.667 140.333 50.583 C 140.333 49.296,140.315 49.303,141.354 50.237 C 145.346 53.826,151.963 51.738,153.859 46.291 C 154.414 44.699,154.492 41.365,154.018 39.494 C 152.480 33.412,145.631 30.964,141.320 34.956 L 140.333 35.869 140.333 31.351 L 140.333 26.833 137.750 26.833 L 135.167 26.833 135.167 39.250 M42.716 29.972 C 44.093 31.361,45.000 32.407,45.000 32.604 C 45.000 33.000,40.351 37.667,39.956 37.667 C 39.520 37.667,35.000 33.075,35.000 32.632 C 35.000 32.062,39.431 27.667,40.005 27.667 C 40.332 27.667,40.965 28.205,42.716 29.972 M65.782 27.773 C 65.719 27.837,65.667 33.239,65.667 39.778 L 65.667 51.667 68.250 51.667 L 70.833 51.667 70.833 44.153 C 70.833 39.313,70.892 36.659,70.997 36.694 C 71.087 36.725,71.990 37.837,73.005 39.167 C 74.019 40.496,75.107 41.921,75.421 42.333 C 75.736 42.746,76.464 43.693,77.038 44.439 C 77.613 45.184,79.089 47.115,80.319 48.730 L 82.555 51.667 84.777 51.667 L 87.000 51.667 87.000 39.662 L 87.000 27.658 84.458 27.704 L 81.917 27.750 81.833 35.059 C 81.757 41.794,81.729 42.344,81.482 42.059 C 81.240 41.780,80.468 40.768,76.086 34.989 C 74.716 33.182,73.035 30.979,71.452 28.917 L 70.557 27.750 68.227 27.704 C 66.946 27.679,65.846 27.710,65.782 27.773 M38.614 31.125 C 38.564 31.285,38.293 32.085,38.011 32.902 C 37.730 33.718,37.500 34.412,37.500 34.443 C 37.500 34.474,37.716 34.500,37.980 34.500 C 38.414 34.500,38.495 34.404,38.837 33.491 C 39.258 32.363,39.337 32.375,39.743 33.625 C 40.290 35.311,41.182 34.918,41.919 32.667 C 42.174 31.887,42.417 31.156,42.459 31.042 C 42.509 30.904,42.366 30.833,42.039 30.833 C 41.592 30.833,41.510 30.920,41.229 31.695 C 40.914 32.564,40.501 32.957,40.499 32.389 C 40.496 31.299,40.175 30.833,39.428 30.833 C 38.886 30.833,38.683 30.906,38.614 31.125 M112.167 33.115 C 110.815 33.342,109.084 34.361,108.320 35.379 L 107.917 35.917 107.833 34.667 L 107.750 33.417 105.235 33.371 L 102.721 33.325 102.611 38.454 C 102.550 41.275,102.500 45.402,102.500 47.625 L 102.500 51.667 105.167 51.667 L 107.833 51.667 107.837 45.875 L 107.841 40.083 108.296 39.261 C 109.090 37.823,110.742 37.288,112.250 37.980 C 113.916 38.745,113.984 39.058,113.993 45.958 L 114.000 51.667 116.583 51.667 L 119.167 51.667 119.167 46.342 C 119.167 43.130,119.239 40.680,119.348 40.170 C 119.952 37.353,123.701 36.748,124.993 39.260 L 125.417 40.083 125.466 45.875 L 125.516 51.667 128.107 51.667 L 130.698 51.667 130.622 44.875 C 130.540 37.479,130.491 37.056,129.547 35.517 C 127.637 32.402,122.344 32.194,119.213 35.110 L 118.434 35.835 117.703 35.000 C 116.328 33.429,114.338 32.751,112.167 33.115 M183.842 33.349 C 181.077 33.891,179.266 36.024,179.258 38.750 C 179.248 41.745,180.709 43.262,184.773 44.477 C 188.314 45.536,189.122 46.259,188.097 47.449 C 187.258 48.424,184.052 47.995,181.647 46.585 C 180.369 45.836,180.416 45.815,179.268 47.681 L 178.318 49.225 178.784 49.617 C 183.001 53.158,190.584 52.667,192.524 48.727 C 194.360 44.996,192.522 42.231,187.000 40.419 C 184.616 39.637,183.833 39.117,183.833 38.316 C 183.833 36.804,186.854 36.747,189.743 38.205 C 190.290 38.481,190.762 38.642,190.792 38.562 C 190.822 38.482,191.249 37.704,191.741 36.833 L 192.634 35.250 192.281 34.972 C 190.616 33.661,186.392 32.849,183.842 33.349 M158.167 39.825 C 158.167 44.026,158.233 46.627,158.355 47.196 C 159.418 52.153,165.434 53.716,168.992 49.959 C 169.786 49.120,169.833 49.151,169.833 50.500 L 169.833 51.667 172.417 51.667 L 175.000 51.667 175.000 42.500 L 175.000 33.333 172.426 33.333 L 169.853 33.333 169.801 39.208 C 169.753 44.732,169.730 45.117,169.417 45.649 C 168.140 47.815,165.091 47.931,163.873 45.859 L 163.417 45.083 163.365 39.208 L 163.314 33.333 160.740 33.333 L 158.167 33.333 158.167 39.825 M92.500 42.667 L 92.500 51.833 95.083 51.833 L 97.667 51.833 97.667 42.667 L 97.667 33.500 95.083 33.500 L 92.500 33.500 92.500 42.667 M146.764 37.923 C 148.400 38.865,149.485 41.001,149.286 42.892 C 148.601 49.423,140.333 49.040,140.333 42.478 C 140.333 38.679,143.805 36.221,146.764 37.923 M34.668 47.668 C 36.181 48.745,34.905 51.148,33.087 50.646 C 32.035 50.356,31.560 49.179,32.085 48.163 C 32.598 47.171,33.679 46.964,34.668 47.668 M44.549 47.271 C 44.606 47.329,44.544 47.587,44.410 47.846 C 43.895 48.842,44.142 50.087,45.060 51.125 C 45.469 51.588,45.953 51.576,40.417 51.233 C 35.467 50.926,35.895 51.019,36.252 50.330 C 36.532 49.788,36.533 48.372,36.254 47.542 L 36.128 47.167 40.286 47.167 C 42.573 47.167,44.491 47.214,44.549 47.271 M48.375 47.848 C 49.583 49.141,48.212 51.275,46.605 50.603 C 45.098 49.973,45.137 47.850,46.667 47.282 C 47.146 47.104,47.920 47.361,48.375 47.848 " stroke="none" fill="#dc252d" fill-rule="evenodd"></path><path id="path2" d="M34.181 2.352 C 19.499 3.656,6.390 15.146,3.166 29.536 C 2.975 30.387,2.749 31.383,2.663 31.750 C 2.092 34.182,2.092 41.152,2.663 43.583 C 2.749 43.950,2.975 44.946,3.166 45.798 C 6.409 60.274,19.266 71.502,34.309 72.995 C 36.717 73.234,363.283 73.234,365.691 72.995 C 380.734 71.502,393.589 60.276,396.834 45.798 C 397.025 44.946,397.249 43.950,397.332 43.583 C 398.086 40.255,397.787 32.728,396.765 29.333 C 396.641 28.921,396.405 28.096,396.241 27.500 C 394.342 20.624,388.736 12.768,382.933 8.851 C 382.282 8.412,381.405 7.818,380.983 7.531 C 377.222 4.974,370.714 2.790,365.500 2.336 C 363.129 2.130,36.508 2.145,34.181 2.352 M42.069 18.566 C 43.567 19.444,44.738 21.311,45.056 23.327 L 45.238 24.486 46.244 24.535 L 47.250 24.583 47.250 32.250 L 47.250 39.917 40.000 39.917 L 32.750 39.917 32.750 32.250 L 32.750 24.583 33.774 24.534 C 34.864 24.482,34.992 24.361,34.998 23.372 C 35.006 21.989,36.766 19.221,38.065 18.550 C 39.389 17.865,40.883 17.871,42.069 18.566 M38.936 19.079 C 37.415 19.621,36.092 21.628,35.776 23.875 L 35.688 24.500 40.032 24.500 L 44.376 24.500 44.267 23.625 C 43.870 20.431,41.297 18.237,38.936 19.079 M56.676 21.974 C 57.618 22.737,57.123 23.633,55.418 24.255 L 54.187 24.704 53.760 25.770 C 53.525 26.357,53.333 26.917,53.333 27.015 C 53.333 27.113,53.149 27.656,52.924 28.222 C 52.550 29.162,52.478 29.802,52.093 35.667 C 51.861 39.196,51.598 42.646,51.507 43.333 C 51.417 44.021,51.298 45.090,51.242 45.710 C 51.131 46.935,50.883 47.333,50.232 47.333 C 49.858 47.333,49.839 47.367,50.022 47.708 C 50.548 48.691,50.138 50.605,49.251 51.302 L 48.829 51.634 50.581 51.754 C 51.545 51.819,52.333 51.943,52.333 52.028 C 52.333 52.123,48.464 52.148,42.388 52.094 L 32.442 52.006 31.792 51.576 C 30.639 50.813,30.095 49.227,30.583 48.058 C 30.905 47.288,30.925 47.333,30.262 47.333 C 29.611 47.333,28.950 46.678,29.116 46.198 C 29.359 45.496,29.304 45.500,39.615 45.500 L 49.500 45.500 49.500 44.500 L 49.500 43.500 39.270 43.500 C 30.808 43.500,29.008 43.461,28.851 43.271 C 28.539 42.896,27.962 40.489,26.486 33.417 C 26.218 32.133,25.849 30.470,25.666 29.720 C 24.974 26.886,25.027 26.833,28.588 26.833 L 31.291 26.833 31.395 27.487 C 31.580 28.643,31.539 28.667,29.316 28.667 C 27.095 28.667,27.183 28.600,27.587 29.960 C 27.727 30.430,28.058 31.850,28.323 33.116 C 29.419 38.336,29.841 40.287,30.021 40.958 L 30.210 41.667 39.928 41.667 C 45.755 41.667,49.685 41.604,49.743 41.511 C 49.818 41.391,50.667 29.787,50.667 28.888 C 50.667 28.756,50.329 28.666,49.708 28.633 L 48.750 28.583 48.750 27.750 L 48.750 26.917 50.095 26.869 L 51.440 26.821 51.708 26.035 C 52.873 22.624,53.011 22.426,54.523 21.993 C 55.890 21.603,56.214 21.600,56.676 21.974 M96.249 22.741 C 98.895 23.538,99.804 27.170,97.848 29.126 C 96.689 30.285,94.928 30.633,93.500 29.986 C 88.994 27.943,91.510 21.315,96.249 22.741 M35.011 25.904 C 34.752 26.216,34.916 26.500,35.355 26.500 C 35.604 26.500,35.676 26.407,35.637 26.138 C 35.570 25.686,35.281 25.578,35.011 25.904 M44.408 26.015 C 44.250 26.269,44.592 26.564,44.905 26.444 C 45.049 26.389,45.167 26.229,45.167 26.089 C 45.167 25.797,44.577 25.740,44.408 26.015 M140.500 31.106 L 140.500 35.546 141.310 34.788 C 147.326 29.161,156.098 36.071,154.337 45.050 C 153.097 51.374,145.662 54.383,141.273 50.337 L 140.517 49.640 140.467 50.695 L 140.417 51.750 138.083 51.798 C 136.800 51.824,135.581 51.804,135.375 51.753 L 135.000 51.660 135.000 39.163 L 135.000 26.667 137.750 26.667 L 140.500 26.667 140.500 31.106 M37.472 29.951 C 35.889 31.519,35.167 32.350,35.167 32.604 C 35.167 33.034,39.555 37.500,39.978 37.500 C 40.352 37.500,44.833 32.968,44.833 32.590 C 44.833 32.253,40.306 27.667,39.973 27.667 C 39.865 27.667,38.739 28.694,37.472 29.951 M71.705 29.042 C 73.078 30.814,75.841 34.437,80.167 40.140 L 81.583 42.008 81.667 34.879 L 81.750 27.750 84.459 27.704 L 87.169 27.658 87.126 39.704 L 87.083 51.750 84.872 51.797 L 82.660 51.843 82.241 51.391 C 82.010 51.142,80.820 49.621,79.596 48.011 C 78.372 46.401,76.451 43.883,75.328 42.417 C 74.205 40.950,72.790 39.083,72.185 38.268 L 71.083 36.785 71.000 44.268 L 70.917 51.750 68.333 51.750 L 65.750 51.750 65.707 39.708 L 65.664 27.667 68.152 27.667 L 70.639 27.667 71.705 29.042 M212.585 27.848 C 213.977 28.105,215.995 29.163,216.729 30.020 C 219.023 32.701,218.143 37.388,215.048 38.976 L 214.467 39.274 215.424 39.641 C 220.394 41.543,220.875 47.854,216.251 50.499 C 214.310 51.610,213.453 51.722,206.375 51.793 L 200.000 51.858 200.000 39.762 L 200.000 27.667 205.803 27.667 C 209.267 27.667,212.000 27.740,212.585 27.848 M202.833 34.348 L 202.833 38.362 207.218 38.306 L 211.602 38.250 212.882 37.617 C 216.230 35.962,215.904 31.599,212.358 30.603 C 211.584 30.386,210.554 30.333,207.114 30.333 L 202.833 30.333 202.833 34.348 M40.247 30.875 C 40.285 30.990,40.402 31.416,40.507 31.823 L 40.697 32.564 41.057 31.657 C 41.396 30.805,41.456 30.747,42.042 30.698 C 42.815 30.634,42.815 30.619,42.012 32.833 L 41.377 34.583 40.614 34.634 L 39.851 34.684 39.666 33.967 C 39.292 32.523,39.310 32.532,38.935 33.588 C 38.597 34.544,38.559 34.585,37.958 34.635 C 37.197 34.698,37.173 34.544,37.729 33.203 C 37.946 32.679,38.219 31.950,38.334 31.583 C 38.449 31.217,38.576 30.860,38.615 30.792 C 38.738 30.577,40.171 30.650,40.247 30.875 M115.845 33.456 C 116.577 33.787,117.161 34.213,117.687 34.799 C 118.457 35.655,118.459 35.655,118.768 35.314 C 122.014 31.727,127.954 32.171,130.026 36.156 L 130.583 37.228 130.583 44.489 L 130.583 51.750 128.000 51.750 L 125.417 51.750 125.333 45.833 C 125.242 39.327,125.245 39.350,124.168 38.443 C 123.220 37.646,121.436 37.654,120.478 38.461 C 119.452 39.324,119.425 39.498,119.333 45.917 L 119.250 51.750 116.583 51.750 L 113.917 51.750 113.833 45.750 C 113.755 40.134,113.729 39.714,113.417 39.184 C 112.322 37.325,109.379 37.403,108.382 39.318 C 108.005 40.043,108.000 40.129,108.000 45.856 L 108.000 51.660 107.625 51.753 C 107.419 51.804,106.200 51.824,104.917 51.798 L 102.583 51.750 102.540 42.542 L 102.497 33.333 105.249 33.333 L 108.000 33.333 108.000 34.387 L 108.000 35.440 108.792 34.695 C 110.752 32.851,113.462 32.375,115.845 33.456 M188.699 33.399 C 190.466 33.848,192.667 34.874,192.667 35.250 C 192.667 35.447,191.866 36.965,190.875 38.646 C 190.765 38.833,190.586 38.798,189.911 38.459 C 186.729 36.855,184.000 36.783,184.000 38.302 C 184.000 39.037,184.547 39.388,187.167 40.335 C 191.460 41.888,192.616 42.852,193.162 45.333 C 194.466 51.258,186.302 54.287,179.662 50.342 C 178.042 49.380,178.060 49.447,179.014 47.912 C 179.468 47.181,179.926 46.415,180.030 46.208 C 180.283 45.709,180.457 45.732,181.586 46.411 C 182.114 46.729,182.817 47.077,183.148 47.183 C 183.479 47.290,183.828 47.438,183.923 47.513 C 184.636 48.074,187.358 47.998,188.020 47.399 C 189.049 46.467,188.175 45.716,184.780 44.613 C 180.474 43.214,179.079 41.821,179.088 38.931 C 179.103 34.427,183.278 32.024,188.699 33.399 M163.532 39.208 C 163.582 44.981,163.590 45.096,163.969 45.806 C 164.901 47.552,167.793 47.650,169.042 45.977 C 169.584 45.251,169.659 44.391,169.663 38.792 L 169.667 33.333 172.333 33.333 L 175.000 33.333 175.000 42.588 L 175.000 51.842 172.375 51.796 L 169.750 51.750 169.667 50.616 L 169.583 49.483 168.833 50.256 C 165.754 53.429,160.234 52.496,158.633 48.531 C 158.258 47.602,158.250 47.445,158.200 40.458 L 158.150 33.333 160.815 33.333 L 163.481 33.333 163.532 39.208 M97.793 42.708 L 97.750 51.917 95.083 51.917 L 92.417 51.917 92.374 42.708 L 92.331 33.500 95.083 33.500 L 97.836 33.500 97.793 42.708 M233.367 33.852 C 235.801 34.361,237.538 35.916,238.254 38.225 L 238.675 39.583 238.629 45.667 L 238.583 51.750 237.250 51.750 L 235.917 51.750 235.867 50.619 L 235.818 49.487 234.939 50.239 C 229.387 54.981,220.379 50.251,223.369 44.163 C 224.857 41.133,229.787 39.801,234.875 41.054 L 235.833 41.290 235.830 40.436 C 235.823 38.915,234.845 37.376,233.506 36.779 C 231.858 36.045,227.874 36.290,225.963 37.244 C 225.318 37.565,225.287 37.540,224.842 36.321 C 224.412 35.142,224.393 35.175,225.870 34.591 C 228.072 33.720,231.244 33.407,233.367 33.852 M272.186 33.834 C 274.336 34.233,276.273 35.762,277.044 37.667 C 277.402 38.552,277.417 38.807,277.466 45.216 L 277.518 51.848 276.217 51.799 L 274.917 51.750 274.867 50.625 C 274.809 49.300,274.828 49.309,273.883 50.180 C 270.227 53.550,263.278 52.384,262.061 48.198 C 260.489 42.792,266.329 39.214,273.721 41.054 C 275.041 41.382,275.180 40.517,274.150 38.384 C 273.044 36.093,268.459 35.626,264.483 37.398 C 264.206 37.521,263.552 36.307,263.458 35.496 C 263.328 34.373,269.135 33.266,272.186 33.834 M293.000 35.167 L 293.000 36.667 292.368 36.667 C 289.716 36.667,287.210 38.585,286.298 41.312 C 285.964 42.314,285.921 42.851,285.840 47.083 L 285.750 51.750 284.417 51.750 L 283.083 51.750 283.083 42.833 L 283.083 33.917 284.417 33.917 L 285.750 33.917 285.833 35.993 C 285.902 37.702,285.950 37.997,286.103 37.660 C 287.051 35.575,289.904 33.686,292.125 33.672 L 293.000 33.667 293.000 35.167 M258.500 34.813 L 258.500 35.792 254.746 40.188 C 252.681 42.605,250.094 45.633,248.997 46.917 L 247.002 49.250 252.751 49.294 L 258.500 49.338 258.500 50.587 L 258.500 51.837 250.792 51.793 L 243.083 51.750 243.034 50.897 L 242.984 50.045 246.588 45.814 C 248.570 43.487,251.161 40.445,252.346 39.054 C 253.531 37.663,254.500 36.483,254.500 36.431 C 254.500 36.380,252.006 36.318,248.958 36.294 L 243.417 36.250 243.365 35.428 C 243.336 34.975,243.356 34.432,243.409 34.219 L 243.506 33.833 251.003 33.833 L 258.500 33.833 258.500 34.813 M313.406 34.189 C 314.615 34.509,316.075 35.318,317.083 36.225 L 318.083 37.125 317.253 38.021 C 316.211 39.146,316.242 39.136,315.611 38.540 C 312.178 35.301,307.515 35.907,305.400 39.868 L 304.750 41.083 304.750 43.167 C 304.750 49.295,311.005 52.211,315.526 48.190 C 316.487 47.335,316.429 47.331,317.401 48.317 L 318.206 49.135 317.395 49.916 C 311.418 55.668,301.766 51.552,301.766 43.250 C 301.766 37.001,307.415 32.604,313.406 34.189 M332.064 34.006 C 337.637 34.811,341.345 40.909,339.449 46.149 C 335.833 56.144,321.338 53.824,321.338 43.250 C 321.338 37.403,326.255 33.166,332.064 34.006 M355.768 34.505 C 356.702 34.957,357.966 36.100,358.421 36.904 C 358.574 37.174,358.718 37.082,359.754 36.056 C 362.640 33.200,367.284 33.125,369.773 35.895 C 371.409 37.714,371.494 38.211,371.498 45.965 L 371.500 52.180 370.125 52.132 L 368.750 52.083 368.658 46.000 C 368.555 39.221,368.531 39.054,367.456 37.888 C 365.382 35.638,361.481 36.274,360.104 39.087 C 359.436 40.449,359.340 41.454,359.337 47.125 L 359.333 52.167 358.014 52.167 L 356.695 52.167 356.632 46.125 C 356.571 40.333,356.552 40.044,356.193 39.138 C 354.786 35.584,349.742 35.688,347.959 39.307 L 347.417 40.409 347.367 46.288 L 347.317 52.167 345.909 52.167 L 344.500 52.167 344.500 43.250 L 344.500 34.333 345.917 34.333 L 347.333 34.333 347.333 35.700 L 347.333 37.066 347.833 36.386 C 349.570 34.025,353.061 33.197,355.768 34.505 M328.403 36.794 C 322.702 38.829,322.853 47.708,328.621 49.651 C 334.123 51.505,338.933 45.541,336.293 40.140 C 334.854 37.196,331.391 35.728,328.403 36.794 M143.786 37.676 C 138.713 38.920,139.553 47.408,144.750 47.406 C 150.342 47.405,150.731 38.250,145.167 37.608 C 144.754 37.560,144.133 37.591,143.786 37.676 M202.833 44.997 L 202.833 49.189 207.875 49.136 L 212.917 49.083 213.917 48.616 C 216.257 47.521,217.156 45.368,216.125 43.329 C 215.134 41.370,213.672 40.960,207.375 40.870 L 202.833 40.805 202.833 44.997 M229.244 42.988 C 224.124 43.801,224.860 49.713,230.083 49.730 C 233.627 49.741,235.750 48.014,235.750 45.120 L 235.750 43.600 234.631 43.312 C 233.313 42.972,230.435 42.799,229.244 42.988 M268.133 43.005 C 262.906 43.886,263.888 49.801,269.250 49.731 C 272.625 49.687,274.833 47.739,274.833 44.803 L 274.833 43.690 273.917 43.424 C 272.110 42.899,269.768 42.729,268.133 43.005 M32.888 47.576 C 31.577 48.147,31.709 50.098,33.083 50.475 C 34.553 50.878,35.625 49.537,34.922 48.176 C 34.546 47.450,33.731 47.209,32.888 47.576 M36.438 47.625 C 36.610 47.983,36.608 49.954,36.435 50.429 C 36.311 50.771,41.209 51.342,44.203 51.335 L 44.990 51.333 44.587 50.739 C 44.049 49.947,43.910 48.932,44.218 48.040 L 44.461 47.333 40.379 47.333 C 36.550 47.333,36.306 47.351,36.438 47.625 M46.750 47.457 C 46.089 47.608,45.667 48.180,45.667 48.923 C 45.667 50.977,48.445 51.162,48.775 49.130 C 48.933 48.152,47.801 47.216,46.750 47.457 M297.417 50.250 L 297.417 52.083 295.792 52.131 L 294.167 52.179 294.167 50.250 L 294.167 48.321 295.792 48.369 L 297.417 48.417 297.417 50.250 " stroke="none" fill="#fbfbfb" fill-rule="evenodd"></path><path id="path3" d="M34.794 2.285 C 35.001 2.324,35.301 2.323,35.460 2.281 C 35.620 2.239,35.450 2.207,35.083 2.209 C 34.717 2.211,34.586 2.245,34.794 2.285 M364.627 2.285 C 364.834 2.324,365.134 2.323,365.294 2.281 C 365.453 2.239,365.283 2.207,364.917 2.209 C 364.550 2.211,364.420 2.245,364.627 2.285 M17.936 8.082 C 17.488 8.391,17.038 8.735,16.936 8.846 C 16.834 8.956,17.219 8.734,17.792 8.351 C 18.365 7.968,18.833 7.620,18.833 7.577 C 18.833 7.463,18.818 7.472,17.936 8.082 M381.167 7.561 C 381.167 7.629,382.467 8.596,382.958 8.893 C 383.606 9.286,383.013 8.742,382.167 8.167 C 381.617 7.793,381.167 7.521,381.167 7.561 M13.032 12.125 L 11.052 14.083 12.901 12.346 C 13.918 11.390,14.860 10.509,14.994 10.387 C 15.128 10.266,15.187 10.167,15.125 10.167 C 15.062 10.167,14.120 11.048,13.032 12.125 M385.979 11.272 C 386.655 11.904,387.742 12.985,388.395 13.676 C 389.049 14.366,389.360 14.666,389.086 14.341 C 388.143 13.221,386.415 11.473,385.583 10.799 C 385.106 10.412,385.275 10.614,385.979 11.272 M8.167 17.833 C 7.793 18.383,7.525 18.833,7.571 18.833 C 7.617 18.833,7.960 18.383,8.333 17.833 C 8.707 17.283,8.975 16.833,8.929 16.833 C 8.883 16.833,8.540 17.283,8.167 17.833 M391.278 17.336 C 391.441 17.612,391.749 18.044,391.962 18.294 C 392.175 18.545,392.073 18.319,391.735 17.792 C 391.094 16.793,390.761 16.461,391.278 17.336 M37.406 20.042 L 36.917 20.583 37.458 20.094 C 37.756 19.825,38.000 19.581,38.000 19.552 C 38.000 19.423,37.862 19.537,37.406 20.042 M393.534 20.987 C 393.835 21.530,394.108 21.947,394.142 21.914 C 394.214 21.842,393.177 20.000,393.065 20.000 C 393.022 20.000,393.233 20.444,393.534 20.987 M394.678 23.250 C 394.678 23.342,394.786 23.604,394.917 23.833 C 395.048 24.063,395.155 24.175,395.155 24.083 C 395.155 23.992,395.048 23.729,394.917 23.500 C 394.786 23.271,394.678 23.158,394.678 23.250 M32.742 24.711 C 32.697 24.828,32.681 26.759,32.706 29.003 L 32.751 33.083 32.834 28.792 C 32.915 24.594,32.908 24.279,32.742 24.711 M396.025 26.667 C 396.025 26.804,396.126 27.179,396.250 27.500 C 396.374 27.821,396.475 27.971,396.475 27.833 C 396.475 27.696,396.374 27.321,396.250 27.000 C 396.126 26.679,396.025 26.529,396.025 26.667 M48.714 27.750 C 48.716 28.208,48.748 28.376,48.786 28.123 C 48.825 27.869,48.824 27.494,48.784 27.289 C 48.744 27.084,48.713 27.292,48.714 27.750 M87.041 39.620 L 87.000 51.657 84.792 51.709 L 82.583 51.761 84.797 51.797 C 86.442 51.824,87.031 51.780,87.090 51.625 C 87.134 51.510,87.150 46.054,87.125 39.500 L 87.081 27.583 87.041 39.620 M81.743 35.000 C 81.743 38.987,81.765 40.619,81.791 38.625 C 81.818 36.631,81.818 33.369,81.791 31.375 C 81.765 29.381,81.743 31.012,81.743 35.000 M396.528 28.417 C 396.526 28.600,396.588 28.900,396.667 29.083 C 396.849 29.508,396.849 29.070,396.667 28.500 C 396.559 28.165,396.532 28.149,396.528 28.417 M50.705 29.167 C 50.705 29.488,50.740 29.619,50.782 29.458 C 50.823 29.298,50.823 29.035,50.782 28.875 C 50.740 28.715,50.705 28.846,50.705 29.167 M216.333 29.750 C 216.644 30.071,216.936 30.333,216.982 30.333 C 217.028 30.333,216.811 30.071,216.500 29.750 C 216.189 29.429,215.897 29.167,215.851 29.167 C 215.805 29.167,216.022 29.429,216.333 29.750 M202.705 34.292 L 202.744 38.417 202.792 34.378 L 202.839 30.339 207.211 30.292 L 211.583 30.244 207.125 30.205 L 202.667 30.167 202.705 34.292 M112.795 32.954 C 113.094 32.991,113.544 32.990,113.795 32.952 C 114.045 32.914,113.800 32.884,113.250 32.885 C 112.700 32.886,112.495 32.917,112.795 32.954 M123.958 32.954 C 124.256 32.991,124.744 32.991,125.042 32.954 C 125.340 32.917,125.096 32.887,124.500 32.887 C 123.904 32.887,123.660 32.917,123.958 32.954 M145.625 32.954 C 145.923 32.991,146.410 32.991,146.708 32.954 C 147.006 32.917,146.762 32.887,146.167 32.887 C 145.571 32.887,145.327 32.917,145.625 32.954 M107.888 34.417 C 107.889 35.058,107.919 35.300,107.955 34.955 C 107.991 34.609,107.990 34.084,107.954 33.788 C 107.917 33.492,107.887 33.775,107.888 34.417 M163.408 38.583 C 163.408 41.517,163.430 42.693,163.458 41.198 C 163.486 39.702,163.486 37.302,163.458 35.865 C 163.430 34.427,163.408 35.650,163.408 38.583 M169.741 38.667 C 169.741 41.646,169.764 42.865,169.791 41.375 C 169.819 39.885,169.819 37.448,169.791 35.958 C 169.764 34.469,169.741 35.688,169.741 38.667 M92.415 42.708 L 92.417 51.917 95.083 51.917 L 97.750 51.917 97.752 42.708 L 97.754 33.500 97.709 42.667 L 97.664 51.833 95.083 51.833 L 92.503 51.833 92.458 42.667 L 92.412 33.500 92.415 42.708 M215.212 34.167 C 215.212 34.579,215.245 34.748,215.284 34.542 C 215.324 34.335,215.324 33.998,215.284 33.792 C 215.245 33.585,215.212 33.754,215.212 34.167 M243.409 34.219 C 243.356 34.432,243.336 34.975,243.365 35.428 L 243.417 36.250 249.042 36.333 C 252.136 36.379,254.667 36.360,254.667 36.292 C 254.667 36.223,252.151 36.167,249.075 36.167 L 243.484 36.167 243.534 35.125 L 243.583 34.083 251.083 33.997 L 258.583 33.912 251.045 33.872 L 243.506 33.833 243.409 34.219 M283.113 33.952 C 283.068 34.024,283.624 34.059,284.349 34.029 L 285.667 33.975 285.667 36.164 C 285.667 37.368,285.723 38.318,285.792 38.276 C 285.860 38.234,285.879 37.236,285.833 36.058 L 285.750 33.917 284.472 33.868 C 283.770 33.842,283.158 33.879,283.113 33.952 M310.544 33.953 C 310.797 33.991,311.172 33.990,311.377 33.951 C 311.582 33.911,311.375 33.880,310.917 33.881 C 310.458 33.882,310.291 33.915,310.544 33.953 M330.211 33.953 C 330.464 33.991,330.839 33.990,331.044 33.951 C 331.249 33.911,331.042 33.880,330.583 33.881 C 330.125 33.882,329.957 33.915,330.211 33.953 M352.625 33.951 C 352.831 33.991,353.169 33.991,353.375 33.951 C 353.581 33.911,353.412 33.879,353.000 33.879 C 352.587 33.879,352.419 33.911,352.625 33.951 M364.544 33.953 C 364.797 33.991,365.172 33.990,365.377 33.951 C 365.582 33.911,365.375 33.880,364.917 33.881 C 364.458 33.882,364.291 33.915,364.544 33.953 M350.750 34.244 C 350.093 34.545,350.241 34.550,351.167 34.259 C 351.579 34.129,351.767 34.021,351.583 34.019 C 351.400 34.017,351.025 34.118,350.750 34.244 M354.827 34.254 C 355.236 34.381,355.596 34.460,355.627 34.429 C 355.712 34.343,354.657 33.998,354.350 34.011 C 354.203 34.017,354.418 34.127,354.827 34.254 M366.500 34.167 C 367.070 34.349,367.508 34.349,367.083 34.167 C 366.900 34.088,366.600 34.026,366.417 34.028 C 366.149 34.032,366.165 34.059,366.500 34.167 M2.205 35.000 C 2.205 35.321,2.240 35.452,2.282 35.292 C 2.323 35.131,2.323 34.869,2.282 34.708 C 2.240 34.548,2.205 34.679,2.205 35.000 M118.906 35.208 L 118.417 35.750 118.958 35.260 C 119.256 34.991,119.500 34.748,119.500 34.719 C 119.500 34.590,119.362 34.703,118.906 35.208 M397.714 35.417 C 397.716 35.875,397.748 36.043,397.786 35.789 C 397.825 35.536,397.824 35.161,397.784 34.956 C 397.744 34.751,397.713 34.958,397.714 35.417 M275.500 35.583 C 275.811 35.904,276.103 36.167,276.149 36.167 C 276.195 36.167,275.978 35.904,275.667 35.583 C 275.356 35.262,275.064 35.000,275.018 35.000 C 274.972 35.000,275.189 35.262,275.500 35.583 M357.326 35.708 C 357.735 36.144,358.091 36.500,358.118 36.500 C 358.243 36.500,358.111 36.350,357.375 35.660 L 356.583 34.917 357.326 35.708 M287.491 35.792 L 286.917 36.417 287.542 35.842 C 288.123 35.308,288.243 35.167,288.116 35.167 C 288.088 35.167,287.807 35.448,287.491 35.792 M359.601 36.176 C 359.015 36.809,358.589 37.142,358.458 37.069 C 358.292 36.975,358.292 36.996,358.458 37.176 C 358.587 37.314,358.719 37.339,358.804 37.242 C 358.880 37.155,359.341 36.652,359.828 36.125 C 360.316 35.598,360.675 35.167,360.625 35.167 C 360.576 35.167,360.115 35.621,359.601 36.176 M263.596 36.000 C 263.657 36.229,263.776 36.529,263.861 36.667 C 263.969 36.840,263.982 36.790,263.904 36.500 C 263.843 36.271,263.724 35.971,263.639 35.833 C 263.531 35.660,263.518 35.710,263.596 36.000 M38.167 36.052 C 38.167 36.081,38.410 36.325,38.708 36.594 L 39.250 37.083 38.760 36.542 C 38.304 36.037,38.167 35.923,38.167 36.052 M323.833 36.750 C 323.428 37.162,323.135 37.500,323.181 37.500 C 323.226 37.500,323.595 37.162,324.000 36.750 C 324.405 36.337,324.699 36.000,324.653 36.000 C 324.607 36.000,324.238 36.337,323.833 36.750 M229.708 36.289 C 230.144 36.324,230.856 36.324,231.292 36.289 C 231.727 36.255,231.371 36.227,230.500 36.227 C 229.629 36.227,229.273 36.255,229.708 36.289 M268.708 36.289 C 269.144 36.324,269.856 36.324,270.292 36.289 C 270.727 36.255,270.371 36.227,269.500 36.227 C 268.629 36.227,268.273 36.255,268.708 36.289 M292.417 36.500 L 291.917 36.627 292.458 36.647 C 292.756 36.658,293.000 36.592,293.000 36.500 C 293.000 36.408,292.981 36.342,292.958 36.353 C 292.935 36.364,292.692 36.430,292.417 36.500 M310.288 36.454 C 310.584 36.490,311.109 36.491,311.455 36.455 C 311.800 36.419,311.558 36.389,310.917 36.388 C 310.275 36.387,309.992 36.417,310.288 36.454 M329.958 36.454 C 330.256 36.491,330.744 36.491,331.042 36.454 C 331.340 36.417,331.096 36.387,330.500 36.387 C 329.904 36.387,329.660 36.417,329.958 36.454 M276.616 37.081 C 276.768 37.401,276.923 37.633,276.959 37.597 C 277.035 37.520,276.529 36.500,276.415 36.500 C 276.373 36.500,276.463 36.762,276.616 37.081 M370.616 37.248 C 370.768 37.568,370.923 37.800,370.959 37.763 C 371.035 37.687,370.529 36.667,370.415 36.667 C 370.373 36.667,370.463 36.928,370.616 37.248 M367.333 37.750 C 367.644 38.071,367.936 38.333,367.982 38.333 C 368.028 38.333,367.811 38.071,367.500 37.750 C 367.189 37.429,366.897 37.167,366.851 37.167 C 366.805 37.167,367.022 37.429,367.333 37.750 M212.833 37.667 C 212.512 37.842,212.310 37.989,212.383 37.993 C 212.560 38.002,213.500 37.513,213.500 37.412 C 213.500 37.303,213.490 37.307,212.833 37.667 M368.362 39.333 C 368.370 39.766,368.633 40.478,368.638 40.083 C 368.641 39.900,368.579 39.600,368.500 39.417 C 368.412 39.212,368.359 39.180,368.362 39.333 M238.540 45.458 L 238.500 51.667 237.250 51.667 L 236.000 51.667 236.000 50.500 C 236.000 49.178,235.925 49.117,235.240 49.875 L 234.750 50.417 235.284 49.935 L 235.817 49.453 235.867 50.602 L 235.917 51.750 237.211 51.799 C 238.830 51.860,238.679 52.549,238.625 45.333 L 238.579 39.250 238.540 45.458 M397.714 40.083 C 397.716 40.542,397.748 40.709,397.786 40.456 C 397.825 40.203,397.824 39.828,397.784 39.623 C 397.744 39.418,397.713 39.625,397.714 40.083 M32.810 39.877 C 32.880 39.947,36.157 39.984,40.093 39.960 L 47.250 39.917 39.967 39.833 C 35.961 39.787,32.740 39.807,32.810 39.877 M51.705 40.167 C 51.705 40.487,51.740 40.619,51.782 40.458 C 51.823 40.298,51.823 40.035,51.782 39.875 C 51.740 39.715,51.705 39.846,51.705 40.167 M2.205 40.333 C 2.205 40.654,2.240 40.785,2.282 40.625 C 2.323 40.465,2.323 40.202,2.282 40.042 C 2.240 39.881,2.205 40.012,2.205 40.333 M356.539 40.667 C 356.539 40.987,356.573 41.119,356.615 40.958 C 356.657 40.798,356.657 40.535,356.615 40.375 C 356.573 40.215,356.539 40.346,356.539 40.667 M235.872 40.833 C 235.872 41.154,235.906 41.285,235.948 41.125 C 235.990 40.965,235.990 40.702,235.948 40.542 C 235.906 40.381,235.872 40.512,235.872 40.833 M113.913 46.083 L 113.917 51.750 116.542 51.757 L 119.167 51.763 116.586 51.711 L 114.004 51.658 113.957 46.037 L 113.910 40.417 113.913 46.083 M301.917 41.000 C 301.853 41.288,301.836 41.559,301.879 41.601 C 301.921 41.643,302.004 41.439,302.063 41.146 C 302.201 40.451,302.067 40.316,301.917 41.000 M368.703 46.198 C 368.683 49.379,368.723 52.015,368.792 52.058 C 368.860 52.100,368.898 50.436,368.874 48.359 C 368.793 41.134,368.739 40.452,368.703 46.198 M202.739 45.000 C 202.739 47.337,202.763 48.294,202.791 47.125 C 202.820 45.956,202.820 44.044,202.791 42.875 C 202.763 41.706,202.739 42.662,202.739 45.000 M211.375 40.948 C 211.535 40.990,211.798 40.990,211.958 40.948 C 212.119 40.906,211.987 40.872,211.667 40.872 C 211.346 40.872,211.215 40.906,211.375 40.948 M107.892 42.333 C 107.892 43.112,107.920 43.431,107.955 43.042 C 107.990 42.652,107.990 42.015,107.955 41.625 C 107.920 41.235,107.892 41.554,107.892 42.333 M51.548 42.083 C 51.549 42.542,51.581 42.709,51.620 42.456 C 51.658 42.203,51.657 41.828,51.617 41.623 C 51.578 41.418,51.546 41.625,51.548 42.083 M301.724 43.250 C 301.724 43.983,301.754 44.263,301.789 43.871 C 301.824 43.479,301.824 42.879,301.788 42.537 C 301.752 42.196,301.723 42.517,301.724 43.250 M304.553 43.167 C 304.553 43.762,304.584 44.006,304.621 43.708 C 304.658 43.410,304.658 42.923,304.621 42.625 C 304.584 42.327,304.553 42.571,304.553 43.167 M339.885 43.250 C 339.886 43.800,339.917 44.005,339.954 43.705 C 339.991 43.406,339.990 42.956,339.952 42.705 C 339.914 42.455,339.884 42.700,339.885 43.250 M324.042 43.250 C 324.044 43.617,324.078 43.747,324.118 43.540 C 324.158 43.332,324.156 43.032,324.115 42.873 C 324.073 42.714,324.040 42.883,324.042 43.250 M337.039 43.333 C 337.039 43.654,337.073 43.785,337.115 43.625 C 337.157 43.465,337.157 43.202,337.115 43.042 C 337.073 42.881,337.039 43.012,337.039 43.333 M266.458 43.429 C 265.812 43.779,265.885 43.900,266.542 43.566 C 267.170 43.247,267.281 43.164,267.069 43.173 C 266.985 43.177,266.710 43.292,266.458 43.429 M273.847 43.393 C 273.885 43.426,274.142 43.503,274.417 43.565 C 274.782 43.647,274.849 43.631,274.667 43.508 C 274.442 43.355,273.680 43.249,273.847 43.393 M49.548 44.250 C 49.549 44.708,49.581 44.876,49.620 44.623 C 49.658 44.369,49.657 43.994,49.617 43.789 C 49.578 43.584,49.546 43.792,49.548 44.250 M226.782 44.042 C 226.263 44.556,226.261 44.562,226.742 44.168 C 227.022 43.940,227.321 43.696,227.408 43.626 C 227.495 43.557,227.513 43.500,227.448 43.500 C 227.382 43.500,227.082 43.744,226.782 44.042 M235.831 44.716 L 235.913 45.917 235.965 44.850 C 235.994 44.264,235.957 43.723,235.884 43.649 C 235.810 43.576,235.787 44.055,235.831 44.716 M285.705 47.618 L 285.667 51.653 284.375 51.709 L 283.083 51.766 284.380 51.800 C 285.982 51.841,285.850 52.243,285.792 47.497 L 285.744 43.583 285.705 47.618 M216.542 44.917 C 216.544 45.283,216.578 45.414,216.618 45.206 C 216.658 44.999,216.656 44.699,216.615 44.540 C 216.573 44.380,216.540 44.550,216.542 44.917 M219.381 45.083 C 219.382 45.542,219.415 45.709,219.453 45.456 C 219.491 45.203,219.490 44.828,219.451 44.623 C 219.411 44.418,219.380 44.625,219.381 45.083 M250.073 45.542 L 249.583 46.083 250.125 45.594 C 250.630 45.138,250.743 45.000,250.615 45.000 C 250.586 45.000,250.342 45.244,250.073 45.542 M193.205 46.167 C 193.205 46.487,193.240 46.619,193.282 46.458 C 193.323 46.298,193.323 46.035,193.282 45.875 C 193.240 45.715,193.205 45.846,193.205 46.167 M222.883 46.500 C 222.883 47.004,222.915 47.210,222.953 46.958 C 222.991 46.706,222.991 46.294,222.953 46.042 C 222.915 45.790,222.883 45.996,222.883 46.500 M225.709 46.417 C 225.711 46.783,225.745 46.914,225.785 46.706 C 225.824 46.499,225.823 46.199,225.781 46.040 C 225.739 45.880,225.707 46.050,225.709 46.417 M305.000 45.897 C 305.000 46.076,305.496 47.000,305.592 47.000 C 305.638 47.000,305.551 46.756,305.400 46.458 C 305.090 45.850,305.000 45.723,305.000 45.897 M249.073 46.708 L 248.583 47.250 249.125 46.760 C 249.630 46.304,249.743 46.167,249.615 46.167 C 249.586 46.167,249.342 46.410,249.073 46.708 M264.681 47.093 C 264.673 47.282,264.785 47.582,264.929 47.760 C 265.073 47.938,265.140 47.984,265.078 47.862 C 265.015 47.740,264.904 47.440,264.830 47.195 C 264.722 46.838,264.692 46.818,264.681 47.093 M215.406 47.708 L 214.917 48.250 215.458 47.760 C 215.756 47.491,216.000 47.248,216.000 47.219 C 216.000 47.090,215.862 47.203,215.406 47.708 M234.573 48.208 L 234.083 48.750 234.625 48.260 C 235.130 47.804,235.243 47.667,235.115 47.667 C 235.086 47.667,234.842 47.910,234.573 48.208 M306.500 48.250 C 306.811 48.571,307.103 48.833,307.149 48.833 C 307.195 48.833,306.978 48.571,306.667 48.250 C 306.356 47.929,306.064 47.667,306.018 47.667 C 305.972 47.667,306.189 47.929,306.500 48.250 M334.991 48.292 L 334.417 48.917 335.042 48.342 C 335.385 48.026,335.667 47.745,335.667 47.717 C 335.667 47.590,335.526 47.710,334.991 48.292 M265.167 48.219 C 265.167 48.248,265.410 48.491,265.708 48.760 L 266.250 49.250 265.760 48.708 C 265.304 48.203,265.167 48.090,265.167 48.219 M45.542 48.917 C 45.544 49.283,45.578 49.414,45.618 49.206 C 45.658 48.999,45.656 48.699,45.615 48.540 C 45.573 48.380,45.540 48.550,45.542 48.917 M295.760 48.455 L 297.354 48.512 297.302 50.332 C 297.273 51.333,297.309 52.092,297.381 52.020 C 297.453 51.947,297.491 51.107,297.464 50.152 L 297.417 48.417 295.791 48.407 L 294.166 48.398 295.760 48.455 M30.372 49.000 C 30.372 49.321,30.406 49.452,30.448 49.292 C 30.490 49.131,30.490 48.869,30.448 48.708 C 30.406 48.548,30.372 48.679,30.372 49.000 M247.086 48.997 C 246.631 49.499,246.749 49.509,252.918 49.458 L 258.583 49.412 252.766 49.373 C 246.960 49.333,246.949 49.333,247.250 49.000 C 247.416 48.817,247.514 48.667,247.468 48.667 C 247.422 48.667,247.251 48.815,247.086 48.997 M323.917 49.833 C 324.368 50.292,324.775 50.667,324.821 50.667 C 324.867 50.667,324.535 50.292,324.083 49.833 C 323.632 49.375,323.225 49.000,323.179 49.000 C 323.133 49.000,323.465 49.375,323.917 49.833 M337.075 49.875 L 336.417 50.583 337.125 49.925 C 337.515 49.562,337.833 49.243,337.833 49.216 C 337.833 49.090,337.688 49.216,337.075 49.875 M169.739 50.667 L 169.750 51.750 172.417 51.757 L 175.083 51.764 172.466 51.711 L 169.848 51.658 169.788 50.621 L 169.727 49.583 169.739 50.667 M332.083 49.833 C 331.873 49.924,331.842 49.977,332.000 49.977 C 332.137 49.977,332.400 49.912,332.583 49.833 C 332.793 49.743,332.824 49.690,332.667 49.690 C 332.529 49.690,332.267 49.755,332.083 49.833 M243.067 50.833 L 243.083 51.750 250.750 51.752 L 258.417 51.755 250.800 51.709 L 243.184 51.663 243.118 50.790 L 243.052 49.917 243.067 50.833 M310.711 50.120 C 310.964 50.158,311.339 50.157,311.544 50.117 C 311.749 50.078,311.542 50.046,311.083 50.048 C 310.625 50.049,310.457 50.081,310.711 50.120 M330.211 50.120 C 330.464 50.158,330.839 50.157,331.044 50.117 C 331.249 50.078,331.042 50.046,330.583 50.048 C 330.125 50.049,329.957 50.081,330.211 50.120 M37.125 50.951 C 37.331 50.991,37.669 50.991,37.875 50.951 C 38.081 50.911,37.912 50.879,37.500 50.879 C 37.087 50.879,36.919 50.911,37.125 50.951 M231.917 51.755 C 231.550 51.876,231.400 51.977,231.583 51.980 C 231.767 51.983,232.142 51.882,232.417 51.756 C 233.047 51.468,232.790 51.467,231.917 51.755 M67.042 51.791 C 67.752 51.822,68.915 51.822,69.625 51.791 C 70.335 51.759,69.754 51.734,68.333 51.734 C 66.912 51.734,66.331 51.759,67.042 51.791 M103.875 51.791 C 104.585 51.822,105.748 51.822,106.458 51.791 C 107.169 51.759,106.587 51.734,105.167 51.734 C 103.746 51.734,103.165 51.759,103.875 51.791 M126.708 51.791 C 127.419 51.822,128.581 51.822,129.292 51.791 C 130.002 51.759,129.421 51.734,128.000 51.734 C 126.579 51.734,125.998 51.759,126.708 51.791 M136.542 51.791 C 137.252 51.822,138.415 51.822,139.125 51.791 C 139.835 51.759,139.254 51.734,137.833 51.734 C 136.412 51.734,135.831 51.759,136.542 51.791 M202.969 51.791 C 204.648 51.819,207.348 51.819,208.969 51.791 C 210.590 51.764,209.217 51.742,205.917 51.742 C 202.617 51.742,201.290 51.764,202.969 51.791 M227.083 51.833 C 227.267 51.912,227.567 51.974,227.750 51.972 C 228.018 51.968,228.002 51.941,227.667 51.833 C 227.097 51.651,226.659 51.651,227.083 51.833 M275.629 51.789 C 276.021 51.824,276.621 51.824,276.963 51.788 C 277.304 51.752,276.983 51.723,276.250 51.724 C 275.517 51.724,275.237 51.754,275.629 51.789 M49.667 52.000 L 47.917 52.101 50.125 52.134 C 51.508 52.154,52.333 52.104,52.333 52.000 C 52.333 51.908,52.127 51.848,51.875 51.866 C 51.623 51.884,50.629 51.944,49.667 52.000 M43.542 52.123 C 44.069 52.156,44.931 52.156,45.458 52.123 C 45.985 52.090,45.554 52.063,44.500 52.063 C 43.446 52.063,43.015 52.090,43.542 52.123 M228.458 52.118 C 228.665 52.157,229.002 52.157,229.208 52.118 C 229.415 52.078,229.246 52.045,228.833 52.045 C 228.421 52.045,228.252 52.078,228.458 52.118 M230.044 52.120 C 230.297 52.158,230.672 52.157,230.877 52.117 C 231.082 52.078,230.875 52.046,230.417 52.048 C 229.958 52.049,229.791 52.081,230.044 52.120 M267.458 52.118 C 267.665 52.157,268.002 52.157,268.208 52.118 C 268.415 52.078,268.246 52.045,267.833 52.045 C 267.421 52.045,267.252 52.078,267.458 52.118 M268.958 52.118 C 269.165 52.157,269.502 52.157,269.708 52.118 C 269.915 52.078,269.746 52.045,269.333 52.045 C 268.921 52.045,268.752 52.078,268.958 52.118 M8.167 57.500 C 8.540 58.050,8.883 58.500,8.929 58.500 C 8.975 58.500,8.707 58.050,8.333 57.500 C 7.960 56.950,7.617 56.500,7.571 56.500 C 7.525 56.500,7.793 56.950,8.167 57.500 M391.667 57.500 C 391.293 58.050,391.025 58.500,391.071 58.500 C 391.117 58.500,391.460 58.050,391.833 57.500 C 392.207 56.950,392.475 56.500,392.429 56.500 C 392.383 56.500,392.040 56.950,391.667 57.500 M10.578 60.664 C 11.184 61.437,13.575 63.851,14.417 64.539 C 14.875 64.914,14.635 64.643,13.883 63.937 C 13.131 63.231,12.006 62.112,11.383 61.450 C 10.760 60.787,10.398 60.434,10.578 60.664 M387.277 62.713 C 385.917 64.093,385.167 64.915,385.611 64.540 C 386.658 63.654,390.077 60.118,389.821 60.185 C 389.782 60.196,388.637 61.333,387.277 62.713 M16.833 66.404 C 16.833 66.450,17.283 66.793,17.833 67.167 C 18.383 67.540,18.833 67.808,18.833 67.762 C 18.833 67.717,18.383 67.373,17.833 67.000 C 17.283 66.627,16.833 66.358,16.833 66.404 M382.269 66.915 C 381.822 67.225,381.372 67.569,381.269 67.679 C 381.167 67.790,381.552 67.567,382.125 67.184 C 382.698 66.801,383.167 66.453,383.167 66.410 C 383.167 66.296,383.151 66.305,382.269 66.915 " stroke="none" fill="#c2a7a9" fill-rule="evenodd"></path><path id="path4" d="M52.042 2.125 C 61.002 2.149,75.665 2.149,84.625 2.125 C 93.585 2.101,86.254 2.082,68.333 2.082 C 50.412 2.082,43.081 2.101,52.042 2.125 M166.805 2.125 C 203.044 2.148,262.294 2.148,298.472 2.125 C 334.650 2.102,305.000 2.083,232.583 2.083 C 160.167 2.083,130.567 2.102,166.805 2.125 M22.833 5.250 C 22.604 5.381,22.492 5.488,22.583 5.488 C 22.675 5.488,22.938 5.381,23.167 5.250 C 23.396 5.119,23.508 5.012,23.417 5.012 C 23.325 5.012,23.063 5.119,22.833 5.250 M39.708 18.115 C 39.869 18.157,40.131 18.157,40.292 18.115 C 40.452 18.073,40.321 18.039,40.000 18.039 C 39.679 18.039,39.548 18.073,39.708 18.115 M39.708 18.782 C 39.869 18.823,40.131 18.823,40.292 18.782 C 40.452 18.740,40.321 18.705,40.000 18.705 C 39.679 18.705,39.548 18.740,39.708 18.782 M36.909 19.542 L 36.250 20.250 36.958 19.591 C 37.348 19.229,37.667 18.910,37.667 18.883 C 37.667 18.757,37.522 18.883,36.909 19.542 M42.500 19.917 C 42.811 20.237,43.103 20.500,43.149 20.500 C 43.195 20.500,42.978 20.237,42.667 19.917 C 42.356 19.596,42.064 19.333,42.018 19.333 C 41.972 19.333,42.189 19.596,42.500 19.917 M55.500 21.731 C 55.500 21.767,55.721 21.828,55.991 21.868 C 56.261 21.907,56.444 21.878,56.398 21.803 C 56.315 21.670,55.500 21.604,55.500 21.731 M44.690 22.333 C 44.690 22.471,44.755 22.733,44.833 22.917 C 44.924 23.127,44.977 23.158,44.977 23.000 C 44.977 22.863,44.912 22.600,44.833 22.417 C 44.743 22.207,44.690 22.176,44.690 22.333 M52.898 22.922 C 52.746 23.154,52.652 23.374,52.689 23.411 C 52.726 23.448,52.883 23.258,53.037 22.989 C 53.381 22.390,53.279 22.340,52.898 22.922 M35.039 23.667 C 35.039 23.988,35.073 24.119,35.115 23.958 C 35.157 23.798,35.157 23.535,35.115 23.375 C 35.073 23.215,35.039 23.346,35.039 23.667 M97.167 23.219 C 97.167 23.248,97.410 23.491,97.708 23.760 L 98.250 24.250 97.760 23.708 C 97.304 23.203,97.167 23.090,97.167 23.219 M44.353 24.039 L 44.333 24.494 39.958 24.542 L 35.583 24.589 39.964 24.628 C 44.619 24.669,44.652 24.664,44.450 23.885 C 44.399 23.686,44.365 23.739,44.353 24.039 M45.067 24.167 C 45.082 24.559,45.143 24.586,46.123 24.633 L 47.163 24.682 47.209 32.216 L 47.255 39.750 47.253 32.167 L 47.250 24.583 46.219 24.534 C 45.306 24.490,45.179 24.442,45.119 24.117 C 45.063 23.812,45.054 23.820,45.067 24.167 M34.000 24.457 C 33.496 24.491,33.031 24.571,32.966 24.635 C 32.901 24.698,33.333 24.725,33.924 24.694 C 34.516 24.663,35.000 24.570,35.000 24.486 C 35.000 24.402,34.981 24.347,34.958 24.364 C 34.935 24.381,34.504 24.423,34.000 24.457 M91.214 26.417 C 91.216 26.875,91.248 27.043,91.286 26.789 C 91.325 26.536,91.324 26.161,91.284 25.956 C 91.244 25.751,91.213 25.958,91.214 26.417 M51.500 26.639 C 51.500 26.769,51.042 26.844,50.125 26.867 L 48.750 26.900 50.068 26.958 C 51.286 27.011,51.906 26.851,51.614 26.558 C 51.551 26.496,51.500 26.532,51.500 26.639 M135.078 26.871 C 135.034 26.988,135.017 32.596,135.041 39.333 L 135.086 51.583 135.126 39.208 L 135.167 26.833 137.747 26.833 L 140.328 26.833 140.376 31.333 L 140.425 35.833 140.421 31.292 L 140.417 26.750 137.788 26.704 C 135.777 26.669,135.140 26.708,135.078 26.871 M28.655 26.956 C 30.848 27.002,31.153 27.043,31.214 27.296 C 31.264 27.507,31.278 27.495,31.266 27.250 C 31.251 26.932,31.131 26.916,28.708 26.910 L 26.166 26.903 28.655 26.956 M25.533 27.200 C 25.423 27.310,25.345 27.629,25.358 27.908 L 25.383 28.417 25.456 27.917 C 25.497 27.642,25.607 27.323,25.702 27.208 C 25.922 26.942,25.797 26.936,25.533 27.200 M38.991 28.292 L 38.417 28.917 39.042 28.342 C 39.623 27.808,39.743 27.667,39.616 27.667 C 39.588 27.667,39.307 27.948,38.991 28.292 M42.498 29.875 C 43.734 31.135,44.765 32.167,44.789 32.167 C 44.909 32.167,44.670 31.919,42.542 29.831 L 40.250 27.583 42.498 29.875 M210.460 27.785 C 210.668 27.824,210.968 27.823,211.127 27.781 C 211.286 27.739,211.117 27.707,210.750 27.709 C 210.383 27.711,210.253 27.745,210.460 27.785 M97.761 28.964 C 97.173 29.668,97.162 29.698,97.650 29.250 C 98.113 28.826,98.620 28.154,98.464 28.172 C 98.438 28.175,98.121 28.531,97.761 28.964 M29.208 28.458 C 27.403 28.504,27.168 28.543,27.180 28.797 C 27.188 28.971,27.226 29.001,27.277 28.875 C 27.338 28.725,27.914 28.667,29.347 28.667 C 30.560 28.667,31.333 28.602,31.333 28.500 C 31.333 28.408,31.315 28.350,31.292 28.369 C 31.269 28.389,30.331 28.429,29.208 28.458 M49.295 28.621 C 49.594 28.658,50.044 28.657,50.295 28.619 C 50.545 28.581,50.300 28.551,49.750 28.552 C 49.200 28.553,48.995 28.584,49.295 28.621 M39.331 30.785 C 39.742 30.824,40.141 30.945,40.218 31.053 C 40.315 31.189,40.338 31.173,40.291 31.000 C 40.244 30.824,39.981 30.745,39.404 30.732 L 38.583 30.714 39.331 30.785 M41.410 30.844 C 41.349 30.942,41.345 31.067,41.400 31.122 C 41.455 31.177,41.500 31.135,41.500 31.028 C 41.500 30.921,41.730 30.833,42.011 30.833 C 42.462 30.833,42.510 30.878,42.417 31.208 C 42.334 31.502,42.350 31.529,42.487 31.333 C 42.809 30.873,42.687 30.667,42.093 30.667 C 41.778 30.667,41.470 30.747,41.410 30.844 M50.550 32.000 C 50.550 32.504,50.581 32.710,50.619 32.458 C 50.658 32.206,50.658 31.794,50.619 31.542 C 50.581 31.290,50.550 31.496,50.550 32.000 M41.003 31.907 C 40.895 32.235,40.738 32.460,40.653 32.408 C 40.569 32.356,40.500 32.393,40.500 32.490 C 40.500 32.587,40.579 32.667,40.675 32.667 C 40.863 32.667,41.404 31.515,41.276 31.387 C 41.234 31.345,41.111 31.579,41.003 31.907 M27.862 31.833 C 27.870 32.266,28.133 32.978,28.138 32.583 C 28.141 32.400,28.079 32.100,28.000 31.917 C 27.912 31.712,27.859 31.680,27.862 31.833 M44.853 32.581 C 44.842 32.766,43.822 33.944,42.542 35.248 L 40.252 37.583 42.643 35.232 C 44.432 33.473,45.013 32.802,44.953 32.566 C 44.877 32.268,44.871 32.269,44.853 32.581 M32.737 36.333 C 32.737 38.212,32.761 38.981,32.791 38.042 C 32.821 37.102,32.821 35.565,32.791 34.625 C 32.761 33.685,32.737 34.454,32.737 36.333 M185.458 33.118 C 185.665 33.157,186.002 33.157,186.208 33.118 C 186.415 33.078,186.246 33.045,185.833 33.045 C 185.421 33.045,185.252 33.078,185.458 33.118 M50.387 34.167 C 50.387 34.762,50.417 35.006,50.454 34.708 C 50.491 34.410,50.491 33.923,50.454 33.625 C 50.417 33.327,50.387 33.571,50.387 34.167 M102.571 36.750 C 102.571 38.675,102.595 39.440,102.624 38.449 C 102.654 37.459,102.654 35.884,102.624 34.949 C 102.595 34.015,102.570 34.825,102.571 36.750 M39.680 33.803 C 39.632 34.600,40.858 35.021,41.347 34.375 C 41.534 34.127,41.532 34.114,41.334 34.292 C 40.884 34.693,40.046 34.551,39.860 34.042 C 39.768 33.790,39.687 33.682,39.680 33.803 M229.960 33.785 C 230.168 33.824,230.468 33.823,230.627 33.781 C 230.786 33.739,230.617 33.707,230.250 33.709 C 229.883 33.711,229.753 33.745,229.960 33.785 M231.294 33.785 C 231.501 33.824,231.801 33.823,231.960 33.781 C 232.120 33.739,231.950 33.707,231.583 33.709 C 231.217 33.711,231.086 33.745,231.294 33.785 M268.875 33.782 C 269.035 33.823,269.298 33.823,269.458 33.782 C 269.619 33.740,269.487 33.705,269.167 33.705 C 268.846 33.705,268.715 33.740,268.875 33.782 M270.208 33.782 C 270.369 33.823,270.631 33.823,270.792 33.782 C 270.952 33.740,270.821 33.705,270.500 33.705 C 270.179 33.705,270.048 33.740,270.208 33.782 M37.429 34.111 C 37.370 34.264,37.391 34.457,37.474 34.541 C 37.689 34.756,38.549 34.626,38.600 34.371 C 38.623 34.254,38.604 34.235,38.557 34.329 C 38.381 34.684,37.467 34.532,37.583 34.167 C 37.711 33.765,37.580 33.718,37.429 34.111 M52.048 34.583 C 52.049 35.042,52.081 35.209,52.120 34.956 C 52.158 34.703,52.157 34.328,52.117 34.123 C 52.078 33.918,52.046 34.125,52.048 34.583 M109.384 34.262 L 108.917 34.691 109.458 34.314 C 109.756 34.107,110.000 33.914,110.000 33.885 C 110.000 33.754,109.816 33.867,109.384 34.262 M292.890 35.083 C 292.891 35.817,292.920 36.096,292.956 35.704 C 292.991 35.312,292.990 34.712,292.954 34.371 C 292.919 34.029,292.890 34.350,292.890 35.083 M117.333 34.583 C 117.644 34.904,117.936 35.167,117.982 35.167 C 118.028 35.167,117.811 34.904,117.500 34.583 C 117.189 34.262,116.897 34.000,116.851 34.000 C 116.805 34.000,117.022 34.262,117.333 34.583 M243.553 35.167 C 243.553 35.762,243.584 36.006,243.621 35.708 C 243.658 35.410,243.658 34.923,243.621 34.625 C 243.584 34.327,243.553 34.571,243.553 35.167 M283.078 42.917 C 283.078 47.775,283.099 49.738,283.125 47.280 C 283.151 44.821,283.151 40.846,283.125 38.447 C 283.099 36.047,283.078 38.058,283.078 42.917 M344.579 34.535 C 344.534 34.653,344.516 38.650,344.540 43.417 L 344.583 52.083 345.750 52.094 L 346.917 52.105 345.792 52.045 L 344.667 51.985 344.667 43.243 L 344.667 34.500 345.910 34.500 L 347.153 34.500 347.212 35.792 L 347.270 37.083 347.260 35.750 L 347.250 34.417 345.956 34.368 C 345.015 34.333,344.639 34.378,344.579 34.535 M76.740 35.888 C 76.996 36.225,77.240 36.500,77.281 36.500 C 77.397 36.500,76.675 35.525,76.462 35.393 C 76.358 35.329,76.483 35.552,76.740 35.888 M348.406 35.875 L 347.917 36.417 348.458 35.927 C 348.963 35.471,349.077 35.333,348.948 35.333 C 348.919 35.333,348.675 35.577,348.406 35.875 M50.209 36.250 C 50.211 36.617,50.245 36.747,50.285 36.540 C 50.324 36.332,50.323 36.032,50.281 35.873 C 50.239 35.714,50.207 35.883,50.209 36.250 M51.887 36.667 C 51.887 37.262,51.917 37.506,51.954 37.208 C 51.991 36.910,51.991 36.423,51.954 36.125 C 51.917 35.827,51.887 36.071,51.887 36.667 M2.062 37.667 C 2.062 38.629,2.089 39.023,2.123 38.542 C 2.157 38.060,2.157 37.273,2.123 36.792 C 2.089 36.310,2.062 36.704,2.062 37.667 M304.409 36.708 L 303.750 37.417 304.458 36.758 C 304.848 36.395,305.167 36.077,305.167 36.050 C 305.167 35.923,305.022 36.050,304.409 36.708 M336.667 36.219 C 336.667 36.248,336.910 36.491,337.208 36.760 L 337.750 37.250 337.260 36.708 C 336.804 36.203,336.667 36.090,336.667 36.219 M351.792 36.451 C 351.998 36.491,352.335 36.491,352.542 36.451 C 352.748 36.411,352.579 36.379,352.167 36.379 C 351.754 36.379,351.585 36.411,351.792 36.451 M363.877 36.453 C 364.131 36.491,364.506 36.490,364.711 36.451 C 364.916 36.411,364.708 36.380,364.250 36.381 C 363.792 36.382,363.624 36.415,363.877 36.453 M70.873 44.208 L 70.913 51.750 70.958 44.283 C 70.992 38.730,71.052 36.846,71.194 36.934 C 71.312 37.006,71.339 36.978,71.266 36.859 C 70.884 36.241,70.836 37.142,70.873 44.208 M130.268 37.250 C 130.405 37.863,130.501 37.996,130.497 37.569 C 130.496 37.394,130.419 37.137,130.326 37.000 C 130.202 36.817,130.187 36.885,130.268 37.250 M397.885 37.750 C 397.886 38.300,397.917 38.505,397.954 38.205 C 397.991 37.906,397.990 37.456,397.952 37.205 C 397.914 36.955,397.884 37.200,397.885 37.750 M216.240 37.875 L 215.750 38.417 216.292 37.927 C 216.797 37.471,216.910 37.333,216.781 37.333 C 216.752 37.333,216.509 37.577,216.240 37.875 M348.740 37.875 L 348.250 38.417 348.792 37.927 C 349.297 37.471,349.410 37.333,349.281 37.333 C 349.252 37.333,349.009 37.577,348.740 37.875 M146.167 37.750 C 146.396 37.881,146.658 37.988,146.750 37.988 C 146.842 37.988,146.729 37.881,146.500 37.750 C 146.271 37.619,146.008 37.512,145.917 37.512 C 145.825 37.512,145.938 37.619,146.167 37.750 M188.649 37.849 C 189.052 38.027,189.412 38.144,189.448 38.108 C 189.520 38.036,188.236 37.493,188.038 37.512 C 187.971 37.518,188.246 37.670,188.649 37.849 M110.544 37.786 C 110.797 37.825,111.172 37.824,111.377 37.784 C 111.582 37.744,111.375 37.713,110.917 37.714 C 110.458 37.716,110.291 37.748,110.544 37.786 M122.044 37.786 C 122.297 37.825,122.672 37.824,122.877 37.784 C 123.082 37.744,122.875 37.713,122.417 37.714 C 121.958 37.716,121.791 37.748,122.044 37.786 M183.944 37.778 C 183.793 37.930,183.804 38.795,183.958 38.891 C 184.027 38.933,184.083 38.675,184.083 38.317 C 184.083 37.960,184.077 37.667,184.069 37.667 C 184.062 37.667,184.006 37.717,183.944 37.778 M316.742 38.375 L 316.083 39.083 316.792 38.425 C 317.181 38.062,317.500 37.743,317.500 37.716 C 317.500 37.590,317.355 37.716,316.742 38.375 M51.717 38.833 C 51.717 39.337,51.748 39.544,51.786 39.292 C 51.824 39.040,51.824 38.627,51.786 38.375 C 51.748 38.123,51.717 38.329,51.717 38.833 M130.548 38.750 C 130.549 39.208,130.581 39.376,130.620 39.123 C 130.658 38.869,130.657 38.494,130.617 38.289 C 130.578 38.084,130.546 38.292,130.548 38.750 M287.740 38.542 L 287.250 39.083 287.792 38.594 C 288.297 38.138,288.410 38.000,288.281 38.000 C 288.252 38.000,288.009 38.244,287.740 38.542 M179.042 38.917 C 179.044 39.283,179.078 39.414,179.118 39.206 C 179.158 38.999,179.156 38.699,179.115 38.540 C 179.073 38.380,179.040 38.550,179.042 38.917 M113.449 39.248 C 113.602 39.568,113.756 39.800,113.792 39.763 C 113.868 39.687,113.362 38.667,113.248 38.667 C 113.206 38.667,113.297 38.928,113.449 39.248 M141.468 38.958 C 141.174 39.300,140.954 39.667,141.042 39.667 C 141.076 39.667,141.270 39.442,141.474 39.167 C 141.875 38.623,141.872 38.488,141.468 38.958 M72.996 39.328 C 73.190 39.601,73.434 39.876,73.538 39.940 C 73.642 40.004,73.517 39.782,73.260 39.445 C 72.703 38.715,72.493 38.622,72.996 39.328 M154.109 39.750 C 154.165 40.117,154.238 40.448,154.272 40.486 C 154.398 40.629,154.304 39.737,154.159 39.417 C 154.054 39.184,154.039 39.285,154.109 39.750 M107.937 39.923 C 107.880 40.072,107.842 40.394,107.852 40.639 C 107.867 40.972,107.904 40.916,108.002 40.417 C 108.140 39.708,108.109 39.475,107.937 39.923 M125.408 46.083 C 125.408 49.200,125.431 50.451,125.458 48.864 C 125.486 47.277,125.485 44.727,125.458 43.198 C 125.431 41.668,125.408 42.967,125.408 46.083 M119.241 46.167 C 119.241 49.237,119.264 50.494,119.291 48.958 C 119.319 47.423,119.319 44.910,119.291 43.375 C 119.264 41.840,119.241 43.096,119.241 46.167 M154.397 42.583 C 154.397 43.683,154.424 44.112,154.457 43.535 C 154.490 42.959,154.489 42.059,154.456 41.535 C 154.423 41.012,154.397 41.483,154.397 42.583 M217.167 40.719 C 217.167 40.748,217.410 40.991,217.708 41.260 L 218.250 41.750 217.760 41.208 C 217.304 40.703,217.167 40.590,217.167 40.719 M356.747 46.417 L 356.750 52.083 357.917 52.094 L 359.083 52.105 357.961 52.045 L 356.838 51.985 356.790 46.368 L 356.743 40.750 356.747 46.417 M347.241 46.583 C 347.241 49.608,347.264 50.869,347.291 49.386 C 347.319 47.902,347.319 45.427,347.291 43.886 C 347.264 42.344,347.241 43.558,347.241 46.583 M30.143 41.710 C 30.212 41.779,34.690 41.817,40.093 41.793 L 49.917 41.750 39.967 41.667 C 34.494 41.621,30.073 41.640,30.143 41.710 M149.217 42.500 C 149.217 43.004,149.248 43.210,149.286 42.958 C 149.324 42.706,149.324 42.294,149.286 42.042 C 149.248 41.790,149.217 41.996,149.217 42.500 M180.417 42.333 C 180.775 42.700,181.105 43.000,181.151 43.000 C 181.197 43.000,180.941 42.700,180.583 42.333 C 180.225 41.967,179.895 41.667,179.849 41.667 C 179.803 41.667,180.059 41.967,180.417 42.333 M191.667 42.750 C 191.978 43.071,192.270 43.333,192.315 43.333 C 192.361 43.333,192.144 43.071,191.833 42.750 C 191.522 42.429,191.230 42.167,191.185 42.167 C 191.139 42.167,191.356 42.429,191.667 42.750 M34.375 43.458 C 37.194 43.484,41.806 43.484,44.625 43.458 C 47.444 43.433,45.137 43.412,39.500 43.412 C 33.862 43.412,31.556 43.433,34.375 43.458 M107.905 47.667 C 107.905 49.913,107.929 50.831,107.958 49.708 C 107.987 48.585,107.987 46.748,107.958 45.625 C 107.929 44.502,107.905 45.421,107.905 47.667 M274.887 44.667 C 274.887 45.262,274.917 45.506,274.954 45.208 C 274.991 44.910,274.991 44.423,274.954 44.125 C 274.917 43.827,274.887 44.071,274.887 44.667 M169.304 45.508 C 169.150 45.870,169.055 46.167,169.091 46.167 C 169.214 46.167,169.688 45.146,169.635 44.996 C 169.607 44.915,169.458 45.145,169.304 45.508 M29.189 46.355 C 29.177 46.596,29.298 46.895,29.458 47.021 C 29.712 47.220,29.725 47.218,29.558 47.000 C 29.452 46.862,29.331 46.563,29.289 46.333 L 29.212 45.917 29.189 46.355 M167.944 46.945 C 167.882 47.006,167.326 47.113,166.708 47.182 L 165.583 47.308 166.708 47.271 C 167.326 47.251,167.923 47.144,168.033 47.034 C 168.143 46.924,168.193 46.833,168.144 46.833 C 168.096 46.833,168.005 46.884,167.944 46.945 M50.250 47.167 L 49.750 47.294 50.198 47.314 C 50.445 47.324,50.693 47.258,50.750 47.167 C 50.807 47.075,50.830 47.009,50.802 47.020 C 50.773 47.031,50.525 47.097,50.250 47.167 M29.833 47.232 C 29.833 47.268,30.096 47.328,30.417 47.365 C 30.738 47.402,31.000 47.373,31.000 47.300 C 31.000 47.227,30.738 47.167,30.417 47.167 C 30.096 47.167,29.833 47.196,29.833 47.232 M33.000 47.341 C 32.817 47.464,32.885 47.480,33.250 47.398 C 33.863 47.261,33.996 47.166,33.569 47.169 C 33.394 47.171,33.137 47.248,33.000 47.341 M40.286 47.329 C 43.967 47.406,44.469 47.448,44.330 47.667 C 44.243 47.804,44.173 47.992,44.175 48.083 C 44.177 48.175,44.282 48.063,44.408 47.835 C 44.773 47.176,44.696 47.165,40.282 47.204 L 36.083 47.241 40.286 47.329 M144.458 47.618 C 144.665 47.657,145.002 47.657,145.208 47.618 C 145.415 47.578,145.246 47.545,144.833 47.545 C 144.421 47.545,144.252 47.578,144.458 47.618 M153.230 47.708 C 152.657 48.682,152.619 48.765,152.911 48.417 C 153.250 48.013,153.542 47.500,153.432 47.500 C 153.389 47.500,153.298 47.594,153.230 47.708 M326.000 48.250 C 326.311 48.571,326.603 48.833,326.649 48.833 C 326.695 48.833,326.478 48.571,326.167 48.250 C 325.856 47.929,325.564 47.667,325.518 47.667 C 325.472 47.667,325.689 47.929,326.000 48.250 M36.550 49.000 C 36.550 49.504,36.581 49.710,36.619 49.458 C 36.658 49.206,36.658 48.794,36.619 48.542 C 36.581 48.290,36.550 48.496,36.550 49.000 M31.872 49.000 C 31.872 49.321,31.906 49.452,31.948 49.292 C 31.990 49.131,31.990 48.869,31.948 48.708 C 31.906 48.548,31.872 48.679,31.872 49.000 M192.289 49.209 L 191.995 49.750 192.331 49.357 C 192.617 49.022,192.769 48.664,192.625 48.668 C 192.602 48.668,192.451 48.912,192.289 49.209 M151.742 49.708 L 151.083 50.417 151.792 49.758 C 152.450 49.145,152.577 49.000,152.450 49.000 C 152.423 49.000,152.105 49.319,151.742 49.708 M204.875 49.291 C 206.135 49.320,208.198 49.320,209.458 49.291 C 210.719 49.263,209.688 49.240,207.167 49.240 C 204.646 49.240,203.615 49.263,204.875 49.291 M274.240 49.708 L 273.750 50.250 274.292 49.760 C 274.797 49.304,274.910 49.167,274.781 49.167 C 274.752 49.167,274.509 49.410,274.240 49.708 M317.406 49.708 L 316.917 50.250 317.458 49.760 C 317.963 49.304,318.077 49.167,317.948 49.167 C 317.919 49.167,317.675 49.410,317.406 49.708 M140.365 50.625 L 140.398 51.750 140.457 50.687 L 140.517 49.625 140.967 50.021 L 141.417 50.417 141.013 49.958 C 140.420 49.286,140.330 49.379,140.365 50.625 M168.000 50.854 C 167.419 51.363,167.419 51.364,167.953 51.008 C 168.248 50.812,168.534 50.580,168.588 50.492 C 168.749 50.232,168.616 50.314,168.000 50.854 M36.000 50.856 C 36.000 50.935,36.188 51.000,36.417 51.000 C 36.646 51.000,36.833 50.971,36.833 50.936 C 36.833 50.901,36.646 50.836,36.417 50.793 C 36.188 50.749,36.000 50.777,36.000 50.856 M38.292 51.118 C 38.498 51.157,38.835 51.157,39.042 51.118 C 39.248 51.078,39.079 51.045,38.667 51.045 C 38.254 51.045,38.085 51.078,38.292 51.118 M40.960 51.285 C 41.168 51.324,41.468 51.323,41.627 51.281 C 41.786 51.239,41.617 51.207,41.250 51.209 C 40.883 51.211,40.753 51.245,40.960 51.285 M43.708 51.448 C 43.869 51.490,44.131 51.490,44.292 51.448 C 44.452 51.406,44.321 51.372,44.000 51.372 C 43.679 51.372,43.548 51.406,43.708 51.448 M48.833 51.823 C 48.833 51.932,49.322 52.000,50.111 52.000 C 51.673 52.000,51.648 51.915,50.042 51.762 C 49.229 51.684,48.833 51.704,48.833 51.823 M37.208 51.958 C 38.835 51.985,41.498 51.985,43.125 51.958 C 44.752 51.931,43.421 51.908,40.167 51.908 C 36.912 51.908,35.581 51.931,37.208 51.958 M33.294 52.118 C 33.501 52.158,33.801 52.156,33.960 52.115 C 34.120 52.073,33.950 52.040,33.583 52.042 C 33.217 52.044,33.086 52.078,33.294 52.118 M46.708 52.119 C 46.960 52.158,47.373 52.158,47.625 52.119 C 47.877 52.081,47.671 52.050,47.167 52.050 C 46.663 52.050,46.456 52.081,46.708 52.119 M145.708 52.119 C 145.960 52.158,146.373 52.158,146.625 52.119 C 146.877 52.081,146.671 52.050,146.167 52.050 C 145.662 52.050,145.456 52.081,145.708 52.119 M163.792 52.121 C 164.090 52.158,164.577 52.158,164.875 52.121 C 165.173 52.084,164.929 52.053,164.333 52.053 C 163.737 52.053,163.494 52.084,163.792 52.121 M185.463 52.122 C 185.855 52.157,186.455 52.157,186.796 52.121 C 187.137 52.085,186.817 52.057,186.083 52.057 C 185.350 52.058,185.071 52.087,185.463 52.122 M295.047 52.123 C 295.485 52.157,296.160 52.157,296.547 52.122 C 296.934 52.087,296.575 52.059,295.750 52.059 C 294.925 52.060,294.609 52.088,295.047 52.123 M369.542 52.121 C 369.885 52.157,370.448 52.157,370.792 52.121 C 371.135 52.085,370.854 52.056,370.167 52.056 C 369.479 52.056,369.198 52.085,369.542 52.121 M12.000 62.385 C 12.000 62.414,12.244 62.658,12.542 62.927 L 13.083 63.417 12.594 62.875 C 12.138 62.370,12.000 62.257,12.000 62.385 M387.406 62.875 L 386.917 63.417 387.458 62.927 C 387.963 62.471,388.077 62.333,387.948 62.333 C 387.919 62.333,387.675 62.577,387.406 62.875 M117.875 73.292 C 163.044 73.315,236.956 73.315,282.125 73.292 C 327.294 73.269,290.337 73.250,200.000 73.250 C 109.662 73.250,72.706 73.269,117.875 73.292 " stroke="none" fill="#cc8c8c" fill-rule="evenodd"></path></g></svg>